<svg xmlns="http://www.w3.org/2000/svg" xmlns:xlink="http://www.w3.org/1999/xlink" id="Graphics" viewBox="0 0 943.92 500.25"><defs><style>.cls-1{fill:none;}.cls-2{fill:url(#linear-gradient);}.cls-3{fill:#0072c6;}.cls-4,.cls-5{fill:#fff;}.cls-6{fill:#fca326;}.cls-7{fill:#fc6d26;}.cls-8,.cls-9{fill:#6c3094;}.cls-10{fill:#69e2b3;}.cls-11{fill:#b6b6b7;}.cls-12{fill:#e24329;}.cls-13{fill:#111518;}.cls-14{fill:#20968b;}.cls-15{fill:#0b161d;}.cls-16{fill:#181616;}.cls-17{fill:#5d5485;}.cls-18{fill:#2684ff;}.cls-19{fill:url(#linear-gradient-3);}.cls-20{fill:url(#linear-gradient-4);}.cls-21{fill:url(#linear-gradient-2);}.cls-9,.cls-5{fill-rule:evenodd;}</style><linearGradient id="linear-gradient" x1="189.78" y1="431.19" x2="233.58" y2="431.19" gradientTransform="matrix(1, 0, 0, 1, 0, 0)" gradientUnits="userSpaceOnUse"><stop offset="0" stop-color="#0079bf"></stop><stop offset="1" stop-color="#0079bf"></stop></linearGradient><linearGradient id="linear-gradient-2" x1="700.73" y1="2399.63" x2="677.38" y2="2381.41" gradientTransform="translate(0 2530.66) scale(1 -1)" gradientUnits="userSpaceOnUse"><stop offset=".18" stop-color="#0052cc"></stop><stop offset="1" stop-color="#2684ff"></stop></linearGradient><linearGradient id="linear-gradient-3" x1="209.91" y1="2416.88" x2="197.31" y2="2404.28" xlink:href="#linear-gradient-2"></linearGradient><linearGradient id="linear-gradient-4" x1="213.24" y1="2380.69" x2="225.82" y2="2393.26" xlink:href="#linear-gradient-2"></linearGradient></defs><g><path class="cls-11" d="M773.6,104.43h4.76v6.49c-.78,.25-1.53,.43-2.24,.54-.72,.11-1.49,.16-2.32,.16-1.96,0-3.47-.58-4.53-1.74-1.06-1.16-1.59-2.79-1.59-4.9s.6-3.71,1.79-4.89c1.2-1.18,2.85-1.76,4.95-1.76,1.35,0,2.63,.26,3.84,.78l-.74,1.76c-1.05-.48-2.1-.73-3.15-.73-1.38,0-2.47,.43-3.27,1.3-.8,.87-1.2,2.05-1.2,3.56,0,1.58,.36,2.78,1.08,3.6s1.76,1.23,3.12,1.23c.68,0,1.42-.09,2.19-.26v-3.33h-2.68v-1.81Z"></path><path class="cls-11" d="M781.12,99.07c0-.37,.1-.66,.3-.86s.49-.3,.87-.3,.65,.1,.85,.3,.3,.49,.3,.86-.1,.63-.3,.83c-.2,.2-.49,.31-.85,.31s-.67-.1-.87-.31c-.2-.2-.3-.48-.3-.83Zm2.2,12.37h-2.08v-9.78h2.08v9.78Z"></path><path class="cls-11" d="M789.94,109.94c.51,0,1.01-.08,1.52-.24v1.57c-.23,.1-.53,.18-.89,.25-.36,.07-.74,.1-1.13,.1-1.97,0-2.95-1.04-2.95-3.11v-5.27h-1.34v-.92l1.43-.76,.71-2.07h1.28v2.18h2.79v1.58h-2.79v5.24c0,.5,.12,.87,.38,1.11,.25,.24,.58,.36,.99,.36Z"></path><path class="cls-11" d="M803.83,111.44h-2.12v-5.83h-5.96v5.83h-2.11v-12.93h2.11v5.29h5.96v-5.29h2.12v12.93Z"></path><path class="cls-11" d="M813.92,111.44l-.29-1.28h-.11c-.29,.45-.7,.81-1.23,1.07-.53,.26-1.14,.39-1.83,.39-1.19,0-2.07-.29-2.65-.88-.58-.59-.88-1.48-.88-2.68v-6.4h2.1v6.03c0,.75,.15,1.31,.46,1.68,.31,.38,.79,.56,1.44,.56,.87,0,1.51-.26,1.92-.78,.41-.52,.61-1.4,.61-2.62v-4.87h2.09v9.78h-1.64Z"></path><path class="cls-11" d="M823.51,101.48c1.22,0,2.17,.44,2.85,1.33,.68,.88,1.02,2.13,1.02,3.72s-.35,2.85-1.04,3.75-1.65,1.34-2.88,1.34-2.2-.45-2.88-1.34h-.14l-.38,1.16h-1.56v-13.76h2.08v3.27c0,.24-.01,.6-.04,1.08s-.04,.78-.05,.91h.09c.66-.97,1.63-1.46,2.92-1.46Zm-.54,1.7c-.84,0-1.44,.25-1.81,.74-.37,.49-.56,1.32-.57,2.47v.14c0,1.19,.19,2.05,.57,2.59,.38,.53,.99,.8,1.85,.8,.74,0,1.3-.29,1.68-.88,.38-.58,.57-1.43,.57-2.53,0-2.22-.76-3.33-2.28-3.33Z"></path><path class="cls-11" d="M833.87,108.02c0-.77,.19-1.45,.57-2.02,.38-.58,1.06-1.15,2.04-1.71-.56-.65-.94-1.21-1.15-1.66s-.3-.92-.3-1.4c0-.9,.32-1.6,.96-2.12,.64-.52,1.5-.78,2.58-.78s1.86,.25,2.46,.76,.89,1.18,.89,2.04c0,.67-.2,1.28-.6,1.83-.4,.55-1.06,1.1-1.99,1.64l3.06,2.96c.48-.63,.88-1.56,1.19-2.78h2.14c-.41,1.67-1.07,3.04-1.98,4.09l2.66,2.57h-2.68l-1.32-1.28c-.6,.48-1.24,.85-1.92,1.09-.68,.25-1.44,.37-2.26,.37-1.36,0-2.42-.32-3.19-.96-.77-.64-1.16-1.52-1.16-2.64Zm4.46,1.81c1.08,0,2-.32,2.77-.95l-3.39-3.33c-.62,.4-1.06,.78-1.29,1.13-.24,.35-.35,.75-.35,1.2,0,.58,.2,1.05,.61,1.41,.41,.36,.96,.54,1.65,.54Zm-1.32-8.54c0,.37,.1,.72,.3,1.05s.47,.68,.83,1.05c.67-.38,1.13-.73,1.4-1.06,.27-.33,.4-.69,.4-1.1,0-.38-.13-.69-.38-.92-.26-.23-.6-.35-1.02-.35-.46,0-.84,.12-1.11,.36-.27,.24-.41,.56-.41,.96Z"></path><path class="cls-11" d="M773.6,122.54h4.76v6.49c-.78,.25-1.53,.43-2.24,.54-.72,.11-1.49,.16-2.32,.16-1.96,0-3.47-.58-4.53-1.74-1.06-1.16-1.59-2.79-1.59-4.9s.6-3.71,1.79-4.89c1.2-1.18,2.85-1.76,4.95-1.76,1.35,0,2.63,.26,3.84,.78l-.74,1.76c-1.05-.48-2.1-.73-3.15-.73-1.38,0-2.47,.43-3.27,1.3-.8,.87-1.2,2.05-1.2,3.56,0,1.58,.36,2.78,1.08,3.6s1.76,1.23,3.12,1.23c.68,0,1.42-.09,2.19-.26v-3.33h-2.68v-1.81Z"></path><path class="cls-11" d="M781.12,117.19c0-.37,.1-.66,.3-.86s.49-.3,.87-.3,.65,.1,.85,.3,.3,.49,.3,.86-.1,.63-.3,.83c-.2,.2-.49,.31-.85,.31s-.67-.1-.87-.31c-.2-.2-.3-.48-.3-.83Zm2.2,12.37h-2.08v-9.78h2.08v9.78Z"></path><path class="cls-11" d="M789.94,128.06c.51,0,1.01-.08,1.52-.24v1.57c-.23,.1-.53,.18-.89,.25-.36,.07-.74,.1-1.13,.1-1.97,0-2.95-1.04-2.95-3.11v-5.27h-1.34v-.92l1.43-.76,.71-2.07h1.28v2.18h2.79v1.58h-2.79v5.24c0,.5,.12,.87,.38,1.11,.25,.24,.58,.36,.99,.36Z"></path><path class="cls-11" d="M803.83,129.56h-2.12v-5.83h-5.96v5.83h-2.11v-12.93h2.11v5.29h5.96v-5.29h2.12v12.93Z"></path><path class="cls-11" d="M813.92,129.56l-.29-1.28h-.11c-.29,.45-.7,.81-1.23,1.07-.53,.26-1.14,.39-1.83,.39-1.19,0-2.07-.29-2.65-.88-.58-.59-.88-1.48-.88-2.68v-6.4h2.1v6.03c0,.75,.15,1.31,.46,1.68,.31,.38,.79,.56,1.44,.56,.87,0,1.51-.26,1.92-.78,.41-.52,.61-1.4,.61-2.62v-4.87h2.09v9.78h-1.64Z"></path><path class="cls-11" d="M823.51,119.6c1.22,0,2.17,.44,2.85,1.33,.68,.88,1.02,2.13,1.02,3.72s-.35,2.85-1.04,3.75-1.65,1.34-2.88,1.34-2.2-.45-2.88-1.34h-.14l-.38,1.16h-1.56v-13.76h2.08v3.27c0,.24-.01,.6-.04,1.08s-.04,.78-.05,.91h.09c.66-.97,1.63-1.46,2.92-1.46Zm-.54,1.7c-.84,0-1.44,.25-1.81,.74-.37,.49-.56,1.32-.57,2.47v.14c0,1.19,.19,2.05,.57,2.59,.38,.53,.99,.8,1.85,.8,.74,0,1.3-.29,1.68-.88,.38-.58,.57-1.43,.57-2.53,0-2.22-.76-3.33-2.28-3.33Z"></path><path class="cls-11" d="M842.04,129.56h-7.31v-12.93h7.31v1.79h-5.2v3.52h4.87v1.77h-4.87v4.06h5.2v1.8Z"></path><path class="cls-11" d="M853.22,129.56h-2.09v-6.01c0-.75-.15-1.32-.46-1.69-.3-.37-.79-.56-1.45-.56-.88,0-1.52,.26-1.93,.78-.41,.52-.61,1.39-.61,2.61v4.87h-2.08v-9.78h1.63l.29,1.28h.11c.29-.47,.71-.83,1.26-1.08,.54-.25,1.14-.38,1.8-.38,2.35,0,3.52,1.19,3.52,3.58v6.38Z"></path><path class="cls-11" d="M859.76,128.06c.51,0,1.01-.08,1.52-.24v1.57c-.23,.1-.53,.18-.89,.25-.36,.07-.74,.1-1.13,.1-1.97,0-2.96-1.04-2.96-3.11v-5.27h-1.34v-.92l1.43-.76,.71-2.07h1.28v2.18h2.79v1.58h-2.79v5.24c0,.5,.12,.87,.38,1.11,.25,.24,.58,.36,.99,.36Z"></path><path class="cls-11" d="M867.51,129.74c-1.52,0-2.71-.44-3.57-1.33-.86-.89-1.29-2.11-1.29-3.67s.4-2.85,1.19-3.77c.8-.91,1.89-1.37,3.28-1.37,1.29,0,2.31,.39,3.06,1.18,.75,.78,1.12,1.86,1.12,3.24v1.12h-6.52c.03,.95,.29,1.68,.77,2.19s1.17,.76,2.04,.76c.58,0,1.12-.05,1.61-.16s1.03-.29,1.61-.54v1.69c-.51,.24-1.02,.41-1.54,.51-.52,.1-1.11,.15-1.78,.15Zm-.38-8.56c-.66,0-1.19,.21-1.59,.63-.4,.42-.63,1.03-.71,1.83h4.44c-.01-.81-.21-1.42-.58-1.83s-.9-.62-1.56-.62Z"></path><path class="cls-11" d="M878.64,119.6c.42,0,.76,.03,1.04,.09l-.2,1.94c-.29-.07-.6-.11-.92-.11-.83,0-1.51,.27-2.02,.81-.52,.54-.77,1.25-.77,2.11v5.11h-2.08v-9.78h1.63l.27,1.73h.11c.32-.58,.75-1.05,1.27-1.39,.52-.34,1.08-.51,1.69-.51Z"></path><path class="cls-11" d="M886.45,129.74c-1.24,0-2.2-.45-2.88-1.34h-.12c.08,.83,.12,1.33,.12,1.5v4.01h-2.08v-14.13h1.68c.05,.18,.14,.62,.29,1.31h.11c.65-.99,1.62-1.49,2.92-1.49,1.22,0,2.17,.44,2.85,1.33s1.02,2.13,1.02,3.72-.35,2.85-1.04,3.74c-.69,.9-1.65,1.34-2.87,1.34Zm-.5-8.44c-.83,0-1.43,.24-1.81,.73-.38,.48-.57,1.26-.57,2.32v.31c0,1.19,.19,2.05,.57,2.59,.38,.53,.99,.8,1.85,.8,.72,0,1.27-.29,1.66-.88,.39-.59,.58-1.43,.58-2.52s-.19-1.93-.58-2.49c-.39-.56-.95-.84-1.7-.84Z"></path><path class="cls-11" d="M897.73,119.6c.42,0,.76,.03,1.03,.09l-.2,1.94c-.29-.07-.6-.11-.92-.11-.83,0-1.5,.27-2.02,.81-.52,.54-.77,1.25-.77,2.11v5.11h-2.08v-9.78h1.63l.27,1.73h.11c.32-.58,.75-1.05,1.27-1.39,.52-.34,1.08-.51,1.69-.51Z"></path><path class="cls-11" d="M900.46,117.19c0-.37,.1-.66,.3-.86s.49-.3,.87-.3,.65,.1,.85,.3,.3,.49,.3,.86-.1,.63-.3,.83c-.2,.2-.49,.31-.85,.31s-.67-.1-.87-.31c-.2-.2-.3-.48-.3-.83Zm2.2,12.37h-2.08v-9.78h2.08v9.78Z"></path><path class="cls-11" d="M912.21,126.77c0,.96-.35,1.69-1.04,2.2-.7,.51-1.69,.76-2.99,.76s-2.35-.2-3.14-.59v-1.79c1.15,.53,2.22,.8,3.21,.8,1.28,0,1.92-.39,1.92-1.16,0-.25-.07-.45-.21-.62-.14-.17-.38-.34-.7-.51s-.78-.38-1.35-.6c-1.13-.44-1.89-.87-2.29-1.31-.4-.44-.6-1-.6-1.7,0-.84,.34-1.49,1.01-1.95s1.59-.69,2.75-.69,2.24,.23,3.26,.7l-.67,1.57c-1.05-.44-1.94-.65-2.66-.65-1.1,0-1.64,.31-1.64,.94,0,.31,.14,.57,.43,.78,.29,.21,.91,.5,1.87,.88,.81,.31,1.39,.6,1.76,.86,.37,.26,.64,.56,.81,.9,.18,.34,.27,.75,.27,1.22Z"></path><path class="cls-11" d="M918.72,129.74c-1.52,0-2.71-.44-3.57-1.33-.86-.89-1.29-2.11-1.29-3.67s.4-2.85,1.19-3.77c.8-.91,1.89-1.37,3.28-1.37,1.29,0,2.31,.39,3.06,1.18,.75,.78,1.12,1.86,1.12,3.24v1.12h-6.52c.03,.95,.29,1.68,.77,2.19s1.17,.76,2.04,.76c.58,0,1.12-.05,1.61-.16s1.03-.29,1.61-.54v1.69c-.51,.24-1.02,.41-1.54,.51-.52,.1-1.11,.15-1.78,.15Zm-.38-8.56c-.66,0-1.19,.21-1.59,.63-.4,.42-.63,1.03-.71,1.83h4.44c-.01-.81-.21-1.42-.58-1.83s-.9-.62-1.56-.62Z"></path></g><g><path class="cls-10" d="M677.03,0h6.38c3.27,0,5.15,.51,6.29,1.34,1.74,1.25,2.68,3.39,2.68,5.72,0,1.54-.43,2.9-1.14,3.93-.91,1.34-2.11,1.94-3.47,2.28l4.7,7.8h-4.44l-5.67-9.79h.83c1.4,0,2.9-.08,3.79-.77,.83-.68,1.34-1.79,1.34-3.08s-.63-2.45-1.57-3.05c-.77-.48-1.79-.65-2.99-.65h-2.48V21.07h-4.24V0Z"></path><path class="cls-10" d="M697.62,14.49c.17,2.51,2.39,3.9,4.53,3.87,1.82,0,3.05-.83,3.76-2.11h3.84c-.74,1.74-1.85,3.05-3.16,3.93-1.31,.91-2.85,1.37-4.47,1.37-4.81,0-8.26-3.9-8.26-8.26s3.47-8.34,8.2-8.34c2.33,0,4.38,.88,5.84,2.39,1.91,1.96,2.62,4.41,2.31,7.15h-12.58Zm8.91-2.85c-.14-1.48-1.71-3.56-4.44-3.53-2.76,0-4.27,1.99-4.41,3.53h8.85Z"></path><path class="cls-10" d="M713.04,5.44h3.5v2.28c1.11-1.57,2.93-2.76,5.52-2.76,5.47,0,7.77,4.64,7.77,8.43,0,4.44-3.16,8.17-7.74,8.17-3.05,0-4.7-1.57-5.33-2.56v7.54h-3.73V5.44Zm13.07,7.8c0-2.25-1.62-4.81-4.78-4.81-1.37,0-2.53,.54-3.39,1.42-.83,.85-1.34,2.08-1.34,3.45s.51,2.53,1.37,3.39,2.05,1.4,3.39,1.4c2.85,0,4.75-2.25,4.75-4.81v-.03Z"></path><path class="cls-10" d="M731.92,13.21c0-3.99,2.93-8.23,8.37-8.23s8.37,4.24,8.37,8.26-2.93,8.29-8.37,8.29-8.37-4.24-8.37-8.29v-.03Zm3.73,.06c0,2.73,2.08,4.75,4.64,4.75s4.61-2.02,4.61-4.78-2.05-4.78-4.61-4.78-4.64,2.02-4.64,4.78v.03Z"></path><path class="cls-10" d="M760.24,21.07V0h4.24V8.46h8.12V0h4.24V21.07h-4.24V12.19h-8.12v8.88h-4.24Z"></path><path class="cls-10" d="M779.83,13.21c0-3.99,2.93-8.23,8.37-8.23s8.37,4.24,8.37,8.26-2.93,8.29-8.37,8.29-8.37-4.24-8.37-8.29v-.03Zm3.73,.06c0,2.73,2.08,4.75,4.64,4.75s4.61-2.02,4.61-4.78-2.05-4.78-4.61-4.78-4.64,2.02-4.64,4.78v.03Z"></path><path class="cls-10" d="M806.22,9.65c-.03-.83-.46-1.68-1.91-1.68-1.25,0-1.85,.8-1.85,1.57,.03,1,1.17,1.54,2.65,1.96,2.51,.68,5.21,1.42,5.24,4.78,.06,3.22-2.65,5.27-5.92,5.27-2.42,0-5.69-1.25-5.98-5.04h3.73c.14,1.68,1.59,2.02,2.31,2.02,1.17,0,2.16-.77,2.13-1.82,0-1.34-1.17-1.71-4.04-2.71-2.11-.65-3.82-1.82-3.84-4.07,0-3.08,2.59-4.98,5.61-4.98,2.11,0,5.24,.94,5.55,4.7h-3.67Z"></path><path class="cls-10" d="M814.16,8.31h-2.59v-2.88h2.59V0h3.73V5.44h2.68v2.88h-2.68v12.76h-3.73V8.31Z"></path><path class="cls-10" d="M822.73,0h3.73V3.33h-3.73V0Zm0,5.44h3.73v15.63h-3.73V5.44Z"></path><path class="cls-10" d="M830.13,5.44h3.5c0,.68,0,1.34-.03,2.08,.68-1.22,2.08-2.59,4.87-2.56,5.1,.03,6.06,3.93,6.06,6.69v9.42h-3.73V12.58c0-2.33-.77-4.13-3.39-4.13-2.65,.03-3.56,1.79-3.56,3.99v8.63h-3.73V5.44Z"></path><path class="cls-10" d="M864.15,19.22c0,2.56-.48,4.21-1.45,5.52-1.34,1.79-3.96,3.22-7.17,3.22-4.87,0-7.2-2.9-7.77-5.32h4.33c.34,.71,.94,1.25,1.62,1.59,.77,.43,1.59,.54,2.05,.54,2.22,0,4.64-1.54,4.64-4.7v-1.31c-.77,1.4-2.42,2.79-5.07,2.79-4.5,0-7.97-3.42-7.97-8.23,0-5.1,3.64-8.34,7.97-8.34,2.25,0,4.19,1.02,5.07,2.56v-2.11h3.76v13.78Zm-13.07-5.98c0,2.73,1.96,4.81,4.67,4.81,1.4,0,2.51-.48,3.33-1.34,.83-.83,1.31-1.99,1.34-3.33,0-1.2-.37-2.45-1.14-3.36-.74-.94-1.91-1.57-3.53-1.57-2.53,0-4.67,1.96-4.67,4.75v.03Z"></path></g><g><path class="cls-10" d="M15.28,0h4.24V21.07h-4.24V0Z"></path><path class="cls-10" d="M30.11,9.65c-.03-.83-.46-1.68-1.91-1.68-1.25,0-1.85,.8-1.85,1.57,.03,1,1.17,1.54,2.65,1.96,2.51,.68,5.21,1.42,5.24,4.78,.06,3.22-2.65,5.27-5.92,5.27-2.42,0-5.69-1.25-5.98-5.04h3.73c.14,1.68,1.59,2.02,2.31,2.02,1.17,0,2.16-.77,2.14-1.82,0-1.34-1.17-1.71-4.04-2.71-2.11-.65-3.82-1.82-3.84-4.07,0-3.08,2.59-4.98,5.61-4.98,2.11,0,5.24,.94,5.55,4.7h-3.67Z"></path><path class="cls-10" d="M43.81,9.65c-.03-.83-.46-1.68-1.91-1.68-1.25,0-1.85,.8-1.85,1.57,.03,1,1.17,1.54,2.65,1.96,2.51,.68,5.21,1.42,5.24,4.78,.06,3.22-2.65,5.27-5.92,5.27-2.42,0-5.69-1.25-5.98-5.04h3.73c.14,1.68,1.59,2.02,2.31,2.02,1.17,0,2.16-.77,2.14-1.82,0-1.34-1.17-1.71-4.04-2.71-2.11-.65-3.82-1.82-3.84-4.07,0-3.08,2.59-4.98,5.61-4.98,2.11,0,5.24,.94,5.55,4.7h-3.67Z"></path><path class="cls-10" d="M65.13,21.07h-3.5v-2.08c-.65,1.22-2.05,2.59-4.87,2.56-5.13-.03-6.09-3.93-6.09-6.66V5.44h3.73V13.95c0,2.31,.77,4.13,3.42,4.1,2.68,0,3.59-1.76,3.59-3.99V5.44h3.73v15.63Z"></path><path class="cls-10" d="M71.59,14.49c.17,2.51,2.39,3.9,4.53,3.87,1.82,0,3.05-.83,3.76-2.11h3.84c-.74,1.74-1.85,3.05-3.16,3.93-1.31,.91-2.85,1.37-4.47,1.37-4.81,0-8.26-3.9-8.26-8.26s3.47-8.34,8.2-8.34c2.33,0,4.38,.88,5.84,2.39,1.91,1.96,2.62,4.41,2.31,7.15h-12.58Zm8.91-2.85c-.14-1.48-1.71-3.56-4.44-3.53-2.76,0-4.27,1.99-4.41,3.53h8.85Z"></path><path class="cls-10" d="M96.24,3.73h-4.56V0h13.33V3.73h-4.53V21.07h-4.24V3.73Z"></path><path class="cls-10" d="M105.92,5.44h3.53v2.05c.68-1.39,1.96-2.5,4.33-2.53v3.76h-.17c-2.62,0-3.96,1.22-3.96,3.93v8.43h-3.73V5.44Z"></path><path class="cls-10" d="M131.26,21.07h-3.73v-2.25c-1,1.82-3.07,2.73-5.27,2.73-5.01,0-7.94-3.9-7.94-8.31,0-4.93,3.56-8.29,7.94-8.29,2.85,0,4.58,1.51,5.27,2.76v-2.28h3.73v15.63Zm-13.21-7.75c0,1.94,1.4,4.76,4.75,4.76,2.08,0,3.45-1.08,4.16-2.51,.37-.68,.54-1.42,.6-2.19,.03-.74-.11-1.51-.43-2.19-.65-1.48-2.11-2.76-4.36-2.76-3.02,0-4.73,2.45-4.73,4.87v.03Z"></path><path class="cls-10" d="M150.51,15.38c-.88,3.47-3.99,6.18-8.03,6.18-4.95,0-8.37-3.84-8.37-8.31s3.56-8.29,8.23-8.29c3.93,0,7.26,2.48,8.17,6.29h-3.82c-.65-1.65-2.16-2.82-4.21-2.82-1.37-.03-2.42,.46-3.33,1.34-.8,.85-1.28,2.11-1.28,3.47,0,2.82,1.96,4.81,4.61,4.81,2.33,0,3.64-1.39,4.21-2.68h3.82Z"></path><path class="cls-10" d="M153.09,0h3.73V11.39l5.38-5.95h4.47l-6.49,6.89,6.52,8.74h-4.27l-5.61-7.8v7.8h-3.73V0Z"></path><path class="cls-10" d="M168.92,0h3.73V3.33h-3.73V0Zm0,5.44h3.73v15.63h-3.73V5.44Z"></path><path class="cls-10" d="M176.32,5.44h3.5c0,.68,0,1.34-.03,2.08,.68-1.22,2.08-2.59,4.87-2.56,5.1,.03,6.06,3.93,6.06,6.69v9.42h-3.73V12.58c0-2.33-.77-4.13-3.39-4.13-2.65,.03-3.56,1.79-3.56,3.99v8.63h-3.73V5.44Z"></path><path class="cls-10" d="M210.35,19.22c0,2.56-.48,4.21-1.45,5.52-1.34,1.79-3.96,3.22-7.18,3.22-4.87,0-7.2-2.9-7.77-5.32h4.33c.34,.71,.94,1.25,1.62,1.59,.77,.43,1.59,.54,2.05,.54,2.22,0,4.64-1.54,4.64-4.7v-1.31c-.77,1.4-2.42,2.79-5.07,2.79-4.5,0-7.97-3.42-7.97-8.23,0-5.1,3.64-8.34,7.97-8.34,2.25,0,4.19,1.02,5.07,2.56v-2.11h3.76v13.78Zm-13.07-5.98c0,2.73,1.96,4.81,4.67,4.81,1.4,0,2.51-.48,3.33-1.34,.83-.83,1.31-1.99,1.34-3.33,0-1.2-.37-2.45-1.14-3.36-.74-.94-1.91-1.57-3.53-1.57-2.53,0-4.67,1.96-4.67,4.75v.03Z"></path></g><g><path class="cls-11" d="M771.88,438.21h4.76v6.49c-.78,.25-1.53,.43-2.24,.54s-1.49,.16-2.32,.16c-1.96,0-3.47-.58-4.53-1.74-1.06-1.16-1.59-2.79-1.59-4.9s.6-3.71,1.8-4.89c1.2-1.18,2.84-1.76,4.94-1.76,1.35,0,2.63,.26,3.84,.78l-.74,1.76c-1.05-.48-2.1-.73-3.15-.73-1.38,0-2.47,.43-3.27,1.3s-1.2,2.05-1.2,3.56c0,1.58,.36,2.78,1.08,3.6,.72,.82,1.76,1.23,3.12,1.23,.68,0,1.42-.09,2.19-.26v-3.33h-2.68v-1.81Z"></path><path class="cls-11" d="M779.39,432.85c0-.37,.1-.66,.31-.86,.2-.2,.49-.3,.87-.3s.65,.1,.85,.3,.31,.49,.31,.86-.1,.63-.31,.83c-.2,.2-.49,.31-.85,.31s-.67-.1-.87-.31c-.2-.2-.31-.48-.31-.83Zm2.2,12.37h-2.08v-9.78h2.08v9.78Z"></path><path class="cls-11" d="M788.21,443.72c.51,0,1.01-.08,1.52-.24v1.57c-.23,.1-.53,.18-.89,.25-.36,.07-.74,.1-1.13,.1-1.97,0-2.96-1.04-2.96-3.11v-5.27h-1.34v-.92l1.43-.76,.71-2.07h1.28v2.18h2.79v1.58h-2.79v5.24c0,.5,.12,.87,.38,1.11,.25,.24,.58,.36,.99,.36Z"></path><path class="cls-11" d="M791.91,445.22v-12.93h2.11v11.12h5.47v1.81h-7.59Z"></path><path class="cls-11" d="M807.63,445.22l-.42-1.36h-.07c-.47,.6-.95,1-1.42,1.22-.48,.21-1.09,.32-1.84,.32-.96,0-1.71-.26-2.25-.78-.54-.52-.81-1.25-.81-2.2,0-1.01,.38-1.77,1.12-2.28,.75-.51,1.89-.79,3.42-.84l1.69-.05v-.52c0-.62-.15-1.09-.44-1.4-.29-.31-.75-.46-1.36-.46-.5,0-.98,.07-1.44,.22-.46,.15-.9,.32-1.33,.52l-.67-1.49c.53-.28,1.11-.49,1.74-.63s1.23-.22,1.79-.22c1.24,0,2.18,.27,2.82,.81,.63,.54,.95,1.39,.95,2.56v6.59h-1.49Zm-3.1-1.42c.75,0,1.36-.21,1.82-.63,.46-.42,.69-1.01,.69-1.77v-.85l-1.26,.05c-.98,.04-1.69,.2-2.14,.49s-.67,.74-.67,1.34c0,.44,.13,.77,.39,1.01,.26,.24,.65,.36,1.17,.36Z"></path><path class="cls-11" d="M817.01,435.26c1.22,0,2.17,.44,2.85,1.33,.68,.88,1.02,2.13,1.02,3.72s-.35,2.85-1.04,3.75-1.65,1.34-2.88,1.34-2.2-.45-2.88-1.34h-.14l-.38,1.16h-1.56v-13.76h2.08v3.27c0,.24-.01,.6-.04,1.08s-.04,.78-.05,.91h.09c.66-.97,1.63-1.46,2.92-1.46Zm-.54,1.7c-.84,0-1.44,.25-1.81,.74-.37,.49-.56,1.32-.57,2.47v.14c0,1.19,.19,2.05,.57,2.59,.38,.53,.99,.8,1.85,.8,.74,0,1.3-.29,1.68-.88,.38-.58,.57-1.43,.57-2.53,0-2.22-.76-3.33-2.28-3.33Z"></path><path class="cls-11" d="M827.37,441.8c0-.77,.19-1.45,.57-2.02,.38-.58,1.06-1.15,2.04-1.71-.56-.65-.94-1.21-1.15-1.66s-.3-.92-.3-1.4c0-.9,.32-1.6,.96-2.12,.64-.52,1.5-.78,2.58-.78s1.86,.25,2.46,.76,.89,1.18,.89,2.04c0,.67-.2,1.28-.6,1.83-.4,.55-1.06,1.1-1.99,1.64l3.06,2.96c.48-.63,.88-1.56,1.19-2.78h2.14c-.41,1.67-1.07,3.04-1.98,4.09l2.66,2.57h-2.68l-1.32-1.28c-.6,.48-1.24,.85-1.92,1.09-.68,.25-1.44,.37-2.26,.37-1.36,0-2.42-.32-3.19-.96-.77-.64-1.16-1.52-1.16-2.64Zm4.46,1.81c1.08,0,2-.32,2.77-.95l-3.39-3.33c-.62,.4-1.06,.78-1.29,1.13-.24,.35-.35,.75-.35,1.2,0,.58,.2,1.05,.61,1.41,.41,.36,.96,.54,1.65,.54Zm-1.32-8.54c0,.37,.1,.72,.3,1.05s.47,.68,.83,1.05c.67-.38,1.13-.73,1.4-1.06,.27-.33,.4-.69,.4-1.1,0-.38-.13-.69-.38-.92-.26-.23-.6-.35-1.02-.35-.46,0-.84,.12-1.11,.36-.27,.24-.41,.56-.41,.96Z"></path><path class="cls-11" d="M771.88,456.32h4.76v6.49c-.78,.25-1.53,.43-2.24,.54s-1.49,.16-2.32,.16c-1.96,0-3.47-.58-4.53-1.74-1.06-1.16-1.59-2.79-1.59-4.9s.6-3.71,1.8-4.89c1.2-1.18,2.84-1.76,4.94-1.76,1.35,0,2.63,.26,3.84,.78l-.74,1.76c-1.05-.48-2.1-.73-3.15-.73-1.38,0-2.47,.43-3.27,1.3s-1.2,2.05-1.2,3.56c0,1.58,.36,2.78,1.08,3.6,.72,.82,1.76,1.23,3.12,1.23,.68,0,1.42-.09,2.19-.26v-3.33h-2.68v-1.81Z"></path><path class="cls-11" d="M779.39,450.96c0-.37,.1-.66,.31-.86,.2-.2,.49-.3,.87-.3s.65,.1,.85,.3,.31,.49,.31,.86-.1,.63-.31,.83c-.2,.2-.49,.31-.85,.31s-.67-.1-.87-.31c-.2-.2-.31-.48-.31-.83Zm2.2,12.37h-2.08v-9.78h2.08v9.78Z"></path><path class="cls-11" d="M788.21,461.83c.51,0,1.01-.08,1.52-.24v1.57c-.23,.1-.53,.18-.89,.25-.36,.07-.74,.1-1.13,.1-1.97,0-2.96-1.04-2.96-3.11v-5.27h-1.34v-.92l1.43-.76,.71-2.07h1.28v2.18h2.79v1.58h-2.79v5.24c0,.5,.12,.87,.38,1.11,.25,.24,.58,.36,.99,.36Z"></path><path class="cls-11" d="M791.91,463.34v-12.93h2.11v11.12h5.47v1.81h-7.59Z"></path><path class="cls-11" d="M807.63,463.34l-.42-1.36h-.07c-.47,.6-.95,1-1.42,1.22-.48,.21-1.09,.32-1.84,.32-.96,0-1.71-.26-2.25-.78-.54-.52-.81-1.25-.81-2.2,0-1.01,.38-1.77,1.12-2.28,.75-.51,1.89-.79,3.42-.84l1.69-.05v-.52c0-.62-.15-1.09-.44-1.4-.29-.31-.75-.46-1.36-.46-.5,0-.98,.07-1.44,.22-.46,.15-.9,.32-1.33,.52l-.67-1.49c.53-.28,1.11-.49,1.74-.63s1.23-.22,1.79-.22c1.24,0,2.18,.27,2.82,.81,.63,.54,.95,1.39,.95,2.56v6.59h-1.49Zm-3.1-1.42c.75,0,1.36-.21,1.82-.63,.46-.42,.69-1.01,.69-1.77v-.85l-1.26,.05c-.98,.04-1.69,.2-2.14,.49s-.67,.74-.67,1.34c0,.44,.13,.77,.39,1.01,.26,.24,.65,.36,1.17,.36Z"></path><path class="cls-11" d="M817.01,453.38c1.22,0,2.17,.44,2.85,1.33,.68,.88,1.02,2.13,1.02,3.72s-.35,2.85-1.04,3.75-1.65,1.34-2.88,1.34-2.2-.45-2.88-1.34h-.14l-.38,1.16h-1.56v-13.76h2.08v3.27c0,.24-.01,.6-.04,1.08s-.04,.78-.05,.91h.09c.66-.97,1.63-1.46,2.92-1.46Zm-.54,1.7c-.84,0-1.44,.25-1.81,.74-.37,.49-.56,1.32-.57,2.47v.14c0,1.19,.19,2.05,.57,2.59,.38,.53,.99,.8,1.85,.8,.74,0,1.3-.29,1.68-.88,.38-.58,.57-1.43,.57-2.53,0-2.22-.76-3.33-2.28-3.33Z"></path><path class="cls-11" d="M835.68,459.83c0,1.15-.42,2.05-1.25,2.71s-1.98,.98-3.44,.98-2.66-.23-3.59-.68v-2c.59,.28,1.21,.5,1.88,.65s1.28,.24,1.85,.24c.84,0,1.46-.16,1.85-.48s.6-.75,.6-1.28c0-.48-.18-.89-.55-1.23-.37-.34-1.12-.73-2.26-1.19-1.18-.48-2.01-1.02-2.49-1.64s-.73-1.35-.73-2.21c0-1.08,.38-1.93,1.15-2.55,.77-.62,1.8-.93,3.09-.93s2.47,.27,3.7,.81l-.67,1.72c-1.15-.48-2.18-.73-3.08-.73-.68,0-1.2,.15-1.56,.45-.35,.3-.53,.69-.53,1.18,0,.34,.07,.62,.21,.86,.14,.24,.37,.46,.7,.68,.32,.21,.91,.49,1.75,.84,.95,.39,1.65,.76,2.09,1.11,.44,.34,.77,.73,.97,1.16,.21,.43,.31,.94,.31,1.52Z"></path><path class="cls-11" d="M842.24,463.51c-1.52,0-2.71-.44-3.57-1.33-.86-.89-1.29-2.11-1.29-3.67s.4-2.85,1.19-3.77,1.89-1.37,3.28-1.37c1.29,0,2.31,.39,3.06,1.18,.75,.78,1.12,1.86,1.12,3.24v1.12h-6.52c.03,.95,.29,1.68,.77,2.19,.48,.51,1.17,.76,2.04,.76,.58,0,1.12-.05,1.62-.16s1.03-.29,1.61-.54v1.69c-.51,.24-1.02,.41-1.54,.51-.52,.1-1.11,.15-1.78,.15Zm-.38-8.56c-.66,0-1.19,.21-1.59,.63-.4,.42-.64,1.03-.71,1.83h4.44c-.01-.81-.21-1.42-.58-1.83-.38-.42-.9-.62-1.56-.62Z"></path><path class="cls-11" d="M850.48,463.34h-2.08v-13.76h2.08v13.76Z"></path><path class="cls-11" d="M858.36,455.13h-2.39v8.21h-2.09v-8.21h-1.61v-.97l1.61-.64v-.64c0-1.16,.27-2.01,.81-2.57,.54-.56,1.37-.84,2.48-.84,.73,0,1.45,.12,2.16,.36l-.55,1.57c-.51-.17-1-.25-1.47-.25s-.82,.15-1.03,.44-.32,.73-.32,1.31v.64h2.39v1.58Z"></path><path class="cls-11" d="M859.18,459.37v-1.77h4.55v1.77h-4.55Z"></path><path class="cls-11" d="M871.67,463.34l-3.75-10.8h-.07c.1,1.6,.15,3.11,.15,4.51v6.29h-1.92v-12.93h2.98l3.59,10.29h.05l3.7-10.29h2.99v12.93h-2.03v-6.4c0-.64,.02-1.48,.05-2.51,.03-1.03,.06-1.66,.08-1.88h-.07l-3.88,10.78h-1.87Z"></path><path class="cls-11" d="M888.7,463.34l-.42-1.36h-.07c-.47,.6-.95,1-1.42,1.22-.48,.21-1.09,.32-1.84,.32-.96,0-1.71-.26-2.25-.78-.54-.52-.81-1.25-.81-2.2,0-1.01,.37-1.77,1.12-2.28,.75-.51,1.89-.79,3.42-.84l1.69-.05v-.52c0-.62-.14-1.09-.44-1.4-.29-.31-.74-.46-1.36-.46-.5,0-.98,.07-1.44,.22-.46,.15-.9,.32-1.33,.52l-.67-1.49c.53-.28,1.11-.49,1.74-.63s1.23-.22,1.79-.22c1.24,0,2.18,.27,2.82,.81,.63,.54,.95,1.39,.95,2.56v6.59h-1.49Zm-3.1-1.42c.75,0,1.36-.21,1.82-.63,.46-.42,.69-1.01,.69-1.77v-.85l-1.26,.05c-.98,.04-1.69,.2-2.14,.49s-.67,.74-.67,1.34c0,.44,.13,.77,.39,1.01s.65,.36,1.17,.36Z"></path><path class="cls-11" d="M901.69,463.34h-2.09v-6.01c0-.75-.15-1.32-.46-1.69-.3-.37-.79-.56-1.45-.56-.88,0-1.52,.26-1.93,.78-.41,.52-.61,1.39-.61,2.61v4.87h-2.08v-9.78h1.63l.29,1.28h.11c.29-.47,.71-.83,1.26-1.08,.54-.25,1.14-.38,1.8-.38,2.35,0,3.52,1.19,3.52,3.58v6.38Z"></path><path class="cls-11" d="M910.7,463.34l-.42-1.36h-.07c-.47,.6-.95,1-1.42,1.22-.48,.21-1.09,.32-1.84,.32-.96,0-1.71-.26-2.25-.78-.54-.52-.81-1.25-.81-2.2,0-1.01,.38-1.77,1.12-2.28s1.89-.79,3.42-.84l1.69-.05v-.52c0-.62-.15-1.09-.44-1.4s-.74-.46-1.36-.46c-.5,0-.98,.07-1.44,.22s-.9,.32-1.33,.52l-.67-1.49c.53-.28,1.11-.49,1.74-.63s1.23-.22,1.79-.22c1.24,0,2.18,.27,2.82,.81,.63,.54,.95,1.39,.95,2.56v6.59h-1.49Zm-3.1-1.42c.75,0,1.36-.21,1.82-.63,.46-.42,.69-1.01,.69-1.77v-.85l-1.26,.05c-.98,.04-1.69,.2-2.14,.49s-.67,.74-.67,1.34c0,.44,.13,.77,.39,1.01,.26,.24,.65,.36,1.17,.36Z"></path><path class="cls-11" d="M923.35,453.55v1.14l-1.67,.31c.15,.21,.28,.46,.38,.76s.15,.62,.15,.96c0,1.01-.35,1.8-1.04,2.38-.7,.58-1.65,.87-2.88,.87-.31,0-.6-.02-.85-.07-.45,.28-.67,.6-.67,.97,0,.22,.11,.39,.31,.5,.21,.11,.59,.17,1.15,.17h1.71c1.08,0,1.9,.23,2.46,.69s.84,1.12,.84,1.99c0,1.11-.46,1.96-1.37,2.56-.91,.6-2.24,.9-3.96,.9-1.33,0-2.35-.24-3.05-.71s-1.05-1.14-1.05-2.02c0-.6,.19-1.11,.57-1.52,.38-.41,.91-.69,1.6-.85-.28-.12-.51-.31-.69-.57-.18-.26-.27-.54-.27-.83,0-.37,.1-.67,.31-.93,.21-.25,.51-.5,.92-.75-.51-.22-.92-.57-1.23-1.07-.31-.49-.47-1.07-.47-1.73,0-1.06,.33-1.88,1-2.47s1.62-.88,2.86-.88c.28,0,.57,.02,.87,.06,.3,.04,.53,.08,.69,.12h3.39Zm-7.69,11.3c0,.45,.2,.79,.61,1.04,.4,.24,.97,.36,1.7,.36,1.13,0,1.98-.16,2.53-.49,.55-.32,.83-.75,.83-1.29,0-.42-.15-.73-.46-.91s-.87-.27-1.69-.27h-1.58c-.6,0-1.07,.14-1.42,.42-.35,.28-.53,.66-.53,1.14Zm.89-8.14c0,.61,.16,1.08,.47,1.42,.32,.33,.77,.5,1.36,.5,1.2,0,1.8-.64,1.8-1.93,0-.64-.15-1.13-.45-1.47-.3-.34-.75-.52-1.36-.52s-1.06,.17-1.37,.51c-.31,.34-.46,.84-.46,1.5Z"></path><path class="cls-11" d="M929.44,463.51c-1.52,0-2.71-.44-3.57-1.33-.86-.89-1.29-2.11-1.29-3.67s.4-2.85,1.19-3.77,1.89-1.37,3.28-1.37c1.29,0,2.31,.39,3.06,1.18,.75,.78,1.12,1.86,1.12,3.24v1.12h-6.52c.03,.95,.29,1.68,.77,2.19,.48,.51,1.17,.76,2.04,.76,.58,0,1.12-.05,1.62-.16s1.03-.29,1.61-.54v1.69c-.51,.24-1.02,.41-1.54,.51-.52,.1-1.11,.15-1.78,.15Zm-.38-8.56c-.66,0-1.19,.21-1.59,.63-.4,.42-.64,1.03-.71,1.83h4.44c-.01-.81-.21-1.42-.58-1.83-.38-.42-.9-.62-1.56-.62Z"></path><path class="cls-11" d="M938.9,463.51c-1.22,0-2.17-.44-2.86-1.33-.68-.88-1.03-2.13-1.03-3.72s.35-2.85,1.04-3.75c.69-.89,1.65-1.34,2.88-1.34s2.26,.47,2.94,1.42h.11c-.1-.7-.15-1.26-.15-1.66v-3.57h2.09v13.76h-1.63l-.36-1.28h-.1c-.67,.97-1.64,1.46-2.93,1.46Zm.56-1.68c.85,0,1.48-.24,1.87-.72,.39-.48,.59-1.26,.6-2.34v-.29c0-1.23-.2-2.11-.6-2.63-.4-.52-1.03-.78-1.88-.78-.73,0-1.29,.3-1.69,.89-.4,.59-.59,1.44-.59,2.53s.19,1.91,.58,2.48c.38,.57,.96,.85,1.73,.85Z"></path></g><g><path class="cls-11" d="M5.93,116.87h4.76v6.49c-.78,.25-1.53,.43-2.24,.54-.72,.11-1.49,.16-2.32,.16-1.96,0-3.47-.58-4.53-1.74-1.06-1.16-1.59-2.79-1.59-4.9s.6-3.71,1.8-4.89c1.2-1.18,2.85-1.76,4.94-1.76,1.35,0,2.63,.26,3.84,.78l-.74,1.76c-1.05-.48-2.1-.73-3.15-.73-1.38,0-2.47,.43-3.27,1.3-.8,.87-1.2,2.05-1.2,3.56,0,1.58,.36,2.78,1.08,3.6,.72,.82,1.76,1.23,3.12,1.23,.68,0,1.42-.09,2.19-.26v-3.33h-2.68v-1.81Z"></path><path class="cls-11" d="M13.44,111.51c0-.37,.1-.66,.31-.86,.2-.2,.49-.3,.87-.3s.65,.1,.85,.3,.31,.49,.31,.86-.1,.63-.31,.83c-.2,.2-.49,.31-.85,.31s-.67-.1-.87-.31c-.2-.2-.31-.48-.31-.83Zm2.2,12.37h-2.08v-9.78h2.08v9.78Z"></path><path class="cls-11" d="M22.26,122.38c.51,0,1.01-.08,1.52-.24v1.57c-.23,.1-.53,.18-.89,.25s-.74,.1-1.13,.1c-1.97,0-2.95-1.04-2.95-3.11v-5.27h-1.34v-.92l1.43-.76,.71-2.07h1.28v2.18h2.79v1.58h-2.79v5.24c0,.5,.12,.87,.38,1.11,.25,.24,.58,.36,.99,.36Z"></path><path class="cls-11" d="M36.16,123.89h-2.12v-5.83h-5.96v5.83h-2.11v-12.93h2.11v5.29h5.96v-5.29h2.12v12.93Z"></path><path class="cls-11" d="M46.24,123.89l-.29-1.28h-.11c-.29,.45-.7,.81-1.23,1.07-.53,.26-1.14,.39-1.83,.39-1.19,0-2.07-.29-2.65-.88-.58-.59-.88-1.48-.88-2.68v-6.4h2.1v6.03c0,.75,.15,1.31,.46,1.68,.31,.38,.79,.56,1.44,.56,.87,0,1.51-.26,1.92-.78,.41-.52,.61-1.4,.61-2.62v-4.87h2.09v9.78h-1.64Z"></path><path class="cls-11" d="M55.84,113.93c1.22,0,2.17,.44,2.85,1.33,.68,.88,1.02,2.13,1.02,3.72s-.35,2.85-1.04,3.75-1.65,1.34-2.87,1.34-2.2-.45-2.88-1.34h-.14l-.38,1.16h-1.56v-13.76h2.08v3.27c0,.24-.01,.6-.04,1.08s-.04,.78-.05,.91h.09c.66-.97,1.63-1.46,2.92-1.46Zm-.54,1.7c-.84,0-1.44,.25-1.81,.74-.37,.49-.56,1.32-.57,2.47v.14c0,1.19,.19,2.05,.57,2.59,.38,.53,.99,.8,1.85,.8,.74,0,1.3-.29,1.68-.88,.38-.58,.57-1.43,.57-2.53,0-2.22-.76-3.33-2.28-3.33Z"></path><path class="cls-11" d="M67.06,123.89v-12.93h2.11v12.93h-2.11Z"></path><path class="cls-11" d="M78.94,121.1c0,.96-.35,1.69-1.04,2.2-.7,.51-1.69,.76-2.99,.76s-2.35-.2-3.14-.59v-1.79c1.15,.53,2.22,.8,3.21,.8,1.28,0,1.92-.39,1.92-1.16,0-.25-.07-.45-.21-.62-.14-.17-.37-.34-.7-.51s-.78-.38-1.35-.6c-1.13-.44-1.89-.87-2.29-1.31-.4-.44-.6-1-.6-1.7,0-.84,.34-1.49,1.01-1.95s1.59-.69,2.76-.69,2.24,.23,3.26,.7l-.67,1.57c-1.06-.44-1.94-.65-2.66-.65-1.1,0-1.65,.31-1.65,.94,0,.31,.14,.57,.43,.78,.29,.21,.91,.5,1.87,.88,.81,.31,1.39,.6,1.76,.86,.37,.26,.64,.56,.81,.9,.18,.34,.27,.75,.27,1.22Z"></path><path class="cls-11" d="M87.75,121.1c0,.96-.35,1.69-1.04,2.2-.7,.51-1.69,.76-2.99,.76s-2.35-.2-3.14-.59v-1.79c1.15,.53,2.22,.8,3.21,.8,1.28,0,1.92-.39,1.92-1.16,0-.25-.07-.45-.21-.62-.14-.17-.37-.34-.7-.51s-.78-.38-1.35-.6c-1.13-.44-1.89-.87-2.29-1.31-.4-.44-.6-1-.6-1.7,0-.84,.34-1.49,1.01-1.95s1.59-.69,2.76-.69,2.24,.23,3.26,.7l-.67,1.57c-1.06-.44-1.94-.65-2.66-.65-1.1,0-1.65,.31-1.65,.94,0,.31,.14,.57,.43,.78,.29,.21,.91,.5,1.87,.88,.81,.31,1.39,.6,1.76,.86,.37,.26,.64,.56,.81,.9,.18,.34,.27,.75,.27,1.22Z"></path><path class="cls-11" d="M96.9,123.89l-.29-1.28h-.11c-.29,.45-.7,.81-1.23,1.07-.53,.26-1.14,.39-1.83,.39-1.19,0-2.07-.29-2.65-.88-.58-.59-.88-1.48-.88-2.68v-6.4h2.1v6.03c0,.75,.15,1.31,.46,1.68,.31,.38,.79,.56,1.44,.56,.87,0,1.51-.26,1.92-.78,.41-.52,.61-1.4,.61-2.62v-4.87h2.09v9.78h-1.64Z"></path><path class="cls-11" d="M105.77,124.06c-1.52,0-2.71-.44-3.57-1.33-.86-.89-1.29-2.11-1.29-3.67s.4-2.85,1.19-3.77c.8-.91,1.89-1.37,3.28-1.37,1.29,0,2.31,.39,3.06,1.18,.75,.78,1.12,1.86,1.12,3.24v1.12h-6.52c.03,.95,.29,1.68,.77,2.19,.48,.51,1.16,.76,2.04,.76,.58,0,1.12-.05,1.61-.16,.5-.11,1.03-.29,1.61-.54v1.69c-.51,.24-1.02,.41-1.54,.51-.52,.1-1.11,.15-1.78,.15Zm-.38-8.56c-.66,0-1.19,.21-1.59,.63-.4,.42-.64,1.03-.71,1.83h4.44c-.01-.81-.21-1.42-.58-1.83s-.9-.62-1.56-.62Z"></path><path class="cls-11" d="M118.51,121.1c0,.96-.35,1.69-1.04,2.2-.7,.51-1.69,.76-2.99,.76s-2.35-.2-3.14-.59v-1.79c1.15,.53,2.22,.8,3.21,.8,1.28,0,1.92-.39,1.92-1.16,0-.25-.07-.45-.21-.62-.14-.17-.37-.34-.7-.51s-.78-.38-1.35-.6c-1.13-.44-1.89-.87-2.29-1.31-.4-.44-.6-1-.6-1.7,0-.84,.34-1.49,1.01-1.95s1.59-.69,2.76-.69,2.24,.23,3.26,.7l-.67,1.57c-1.06-.44-1.94-.65-2.66-.65-1.1,0-1.65,.31-1.65,.94,0,.31,.14,.57,.43,.78,.29,.21,.91,.5,1.87,.88,.81,.31,1.39,.6,1.76,.86,.37,.26,.64,.56,.81,.9,.18,.34,.27,.75,.27,1.22Z"></path></g><g><path class="cls-11" d="M10.7,440.55h4.76v6.49c-.78,.25-1.53,.43-2.24,.54-.72,.11-1.49,.16-2.32,.16-1.96,0-3.47-.58-4.53-1.74-1.06-1.16-1.59-2.79-1.59-4.9s.6-3.71,1.8-4.89c1.2-1.18,2.85-1.76,4.94-1.76,1.35,0,2.63,.26,3.84,.78l-.74,1.76c-1.05-.48-2.1-.73-3.15-.73-1.38,0-2.47,.43-3.27,1.3-.8,.87-1.2,2.05-1.2,3.56,0,1.58,.36,2.78,1.08,3.6,.72,.82,1.76,1.23,3.12,1.23,.68,0,1.42-.09,2.19-.26v-3.33h-2.68v-1.81Z"></path><path class="cls-11" d="M18.22,435.19c0-.37,.1-.66,.31-.86,.2-.2,.49-.3,.87-.3s.65,.1,.85,.3,.31,.49,.31,.86-.1,.63-.31,.83c-.2,.2-.49,.31-.85,.31s-.67-.1-.87-.31c-.2-.2-.31-.48-.31-.83Zm2.2,12.37h-2.08v-9.78h2.08v9.78Z"></path><path class="cls-11" d="M27.04,446.06c.51,0,1.01-.08,1.52-.24v1.57c-.23,.1-.53,.18-.89,.25s-.74,.1-1.13,.1c-1.97,0-2.95-1.04-2.95-3.11v-5.27h-1.34v-.92l1.43-.76,.71-2.07h1.28v2.18h2.79v1.58h-2.79v5.24c0,.5,.12,.87,.38,1.11,.25,.24,.58,.36,.99,.36Z"></path><path class="cls-11" d="M30.74,447.56v-12.93h2.11v11.12h5.48v1.81h-7.59Z"></path><path class="cls-11" d="M46.46,447.56l-.42-1.36h-.07c-.47,.6-.95,1-1.42,1.22-.48,.21-1.09,.32-1.84,.32-.96,0-1.71-.26-2.25-.78-.54-.52-.81-1.25-.81-2.2,0-1.01,.37-1.77,1.12-2.28s1.89-.79,3.42-.84l1.69-.05v-.52c0-.62-.15-1.09-.44-1.4s-.74-.46-1.36-.46c-.5,0-.98,.07-1.44,.22s-.9,.32-1.33,.52l-.67-1.49c.53-.28,1.11-.49,1.74-.63s1.23-.22,1.79-.22c1.24,0,2.18,.27,2.82,.81,.63,.54,.95,1.39,.95,2.56v6.59h-1.49Zm-3.1-1.42c.75,0,1.36-.21,1.82-.63,.46-.42,.69-1.01,.69-1.77v-.85l-1.26,.05c-.98,.04-1.69,.2-2.14,.49s-.67,.74-.67,1.34c0,.44,.13,.77,.39,1.01,.26,.24,.65,.36,1.17,.36Z"></path><path class="cls-11" d="M55.84,437.6c1.22,0,2.17,.44,2.85,1.33,.68,.88,1.02,2.13,1.02,3.72s-.35,2.85-1.04,3.75-1.65,1.34-2.87,1.34-2.2-.45-2.88-1.34h-.14l-.38,1.16h-1.56v-13.76h2.08v3.27c0,.24-.01,.6-.04,1.08s-.04,.78-.05,.91h.09c.66-.97,1.63-1.46,2.92-1.46Zm-.54,1.7c-.84,0-1.44,.25-1.81,.74-.37,.49-.56,1.32-.57,2.47v.14c0,1.19,.19,2.05,.57,2.59,.38,.53,.99,.8,1.85,.8,.74,0,1.3-.29,1.68-.88,.38-.58,.57-1.43,.57-2.53,0-2.22-.76-3.33-2.28-3.33Z"></path><path class="cls-11" d="M67.06,447.56v-12.93h2.11v12.93h-2.11Z"></path><path class="cls-11" d="M78.94,444.78c0,.96-.35,1.69-1.04,2.2-.7,.51-1.69,.76-2.99,.76s-2.35-.2-3.14-.59v-1.79c1.15,.53,2.22,.8,3.21,.8,1.28,0,1.92-.39,1.92-1.16,0-.25-.07-.45-.21-.62-.14-.17-.37-.34-.7-.51s-.78-.38-1.35-.6c-1.13-.44-1.89-.87-2.29-1.31-.4-.44-.6-1-.6-1.7,0-.84,.34-1.49,1.01-1.95s1.59-.69,2.76-.69,2.24,.23,3.26,.7l-.67,1.57c-1.06-.44-1.94-.65-2.66-.65-1.1,0-1.65,.31-1.65,.94,0,.31,.14,.57,.43,.78,.29,.21,.91,.5,1.87,.88,.81,.31,1.39,.6,1.76,.86,.37,.26,.64,.56,.81,.9,.18,.34,.27,.75,.27,1.22Z"></path><path class="cls-11" d="M87.75,444.78c0,.96-.35,1.69-1.04,2.2-.7,.51-1.69,.76-2.99,.76s-2.35-.2-3.14-.59v-1.79c1.15,.53,2.22,.8,3.21,.8,1.28,0,1.92-.39,1.92-1.16,0-.25-.07-.45-.21-.62-.14-.17-.37-.34-.7-.51s-.78-.38-1.35-.6c-1.13-.44-1.89-.87-2.29-1.31-.4-.44-.6-1-.6-1.7,0-.84,.34-1.49,1.01-1.95s1.59-.69,2.76-.69,2.24,.23,3.26,.7l-.67,1.57c-1.06-.44-1.94-.65-2.66-.65-1.1,0-1.65,.31-1.65,.94,0,.31,.14,.57,.43,.78,.29,.21,.91,.5,1.87,.88,.81,.31,1.39,.6,1.76,.86,.37,.26,.64,.56,.81,.9,.18,.34,.27,.75,.27,1.22Z"></path><path class="cls-11" d="M96.9,447.56l-.29-1.28h-.11c-.29,.45-.7,.81-1.23,1.07-.53,.26-1.14,.39-1.83,.39-1.19,0-2.07-.29-2.65-.88-.58-.59-.88-1.48-.88-2.68v-6.4h2.1v6.03c0,.75,.15,1.31,.46,1.68,.31,.38,.79,.56,1.44,.56,.87,0,1.51-.26,1.92-.78,.41-.52,.61-1.4,.61-2.62v-4.87h2.09v9.78h-1.64Z"></path><path class="cls-11" d="M105.77,447.74c-1.52,0-2.71-.44-3.57-1.33-.86-.89-1.29-2.11-1.29-3.67s.4-2.85,1.19-3.77c.8-.91,1.89-1.37,3.28-1.37,1.29,0,2.31,.39,3.06,1.18,.75,.78,1.12,1.86,1.12,3.24v1.12h-6.52c.03,.95,.29,1.68,.77,2.19,.48,.51,1.16,.76,2.04,.76,.58,0,1.12-.05,1.61-.16,.5-.11,1.03-.29,1.61-.54v1.69c-.51,.24-1.02,.41-1.54,.51-.52,.1-1.11,.15-1.78,.15Zm-.38-8.56c-.66,0-1.19,.21-1.59,.63-.4,.42-.64,1.03-.71,1.83h4.44c-.01-.81-.21-1.42-.58-1.83s-.9-.62-1.56-.62Z"></path><path class="cls-11" d="M118.51,444.78c0,.96-.35,1.69-1.04,2.2-.7,.51-1.69,.76-2.99,.76s-2.35-.2-3.14-.59v-1.79c1.15,.53,2.22,.8,3.21,.8,1.28,0,1.92-.39,1.92-1.16,0-.25-.07-.45-.21-.62-.14-.17-.37-.34-.7-.51s-.78-.38-1.35-.6c-1.13-.44-1.89-.87-2.29-1.31-.4-.44-.6-1-.6-1.7,0-.84,.34-1.49,1.01-1.95s1.59-.69,2.76-.69,2.24,.23,3.26,.7l-.67,1.57c-1.06-.44-1.94-.65-2.66-.65-1.1,0-1.65,.31-1.65,.94,0,.31,.14,.57,.43,.78,.29,.21,.91,.5,1.87,.88,.81,.31,1.39,.6,1.76,.86,.37,.26,.64,.56,.81,.9,.18,.34,.27,.75,.27,1.22Z"></path></g><g><path class="cls-11" d="M192.59,498.31h-2.22v-11.66h-3.99v-1.9h10.2v1.9h-3.99v11.66Z"></path><path class="cls-11" d="M203.63,487.87c.44,0,.8,.03,1.09,.09l-.21,2.03c-.31-.08-.63-.11-.96-.11-.87,0-1.58,.29-2.12,.85-.54,.57-.81,1.31-.81,2.22v5.36h-2.18v-10.26h1.71l.29,1.81h.11c.34-.61,.78-1.1,1.33-1.46s1.14-.54,1.77-.54Z"></path><path class="cls-11" d="M211.1,498.5c-1.6,0-2.84-.46-3.75-1.4-.9-.93-1.35-2.21-1.35-3.85s.42-2.99,1.25-3.95c.84-.96,1.98-1.44,3.44-1.44,1.35,0,2.42,.41,3.21,1.23,.79,.82,1.18,1.95,1.18,3.4v1.18h-6.84c.03,1,.3,1.76,.81,2.3s1.22,.8,2.14,.8c.61,0,1.17-.06,1.69-.17,.53-.11,1.09-.3,1.69-.57v1.77c-.53,.25-1.07,.43-1.62,.54s-1.17,.16-1.86,.16Zm-.4-8.98c-.69,0-1.25,.22-1.67,.66-.42,.44-.67,1.08-.75,1.92h4.66c-.01-.85-.22-1.49-.61-1.92-.4-.44-.94-.66-1.63-.66Z"></path><path class="cls-11" d="M219.75,498.31h-2.18v-14.44h2.18v14.44Z"></path><path class="cls-11" d="M225.05,498.31h-2.18v-14.44h2.18v14.44Z"></path><path class="cls-11" d="M237.27,493.16c0,1.68-.43,2.98-1.29,3.92-.86,.94-2.06,1.41-3.59,1.41-.96,0-1.81-.22-2.54-.65-.74-.43-1.3-1.06-1.7-1.86-.39-.81-.59-1.75-.59-2.82,0-1.66,.43-2.96,1.28-3.9,.85-.93,2.06-1.4,3.61-1.4s2.66,.48,3.53,1.43c.87,.96,1.3,2.25,1.3,3.87Zm-7.47,0c0,2.37,.87,3.55,2.63,3.55s2.6-1.19,2.6-3.55-.87-3.52-2.62-3.52c-.92,0-1.58,.3-1.99,.91-.41,.61-.62,1.47-.62,2.61Z"></path></g><g><circle class="cls-15" cx="211.12" cy="431.19" r="42.49"></circle><path class="cls-4" d="M211.12,474.43c-23.85,0-43.25-19.4-43.25-43.25s19.4-43.25,43.25-43.25,43.25,19.4,43.25,43.25-19.4,43.25-43.25,43.25Zm0-84.98c-23.01,0-41.74,18.72-41.74,41.74s18.72,41.74,41.74,41.74,41.74-18.72,41.74-41.74-18.72-41.74-41.74-41.74Z"></path></g><path class="cls-2" d="M228.1,409.29h-32.85c-3.02,0-5.48,2.45-5.48,5.48v32.85c0,3.02,2.45,5.48,5.48,5.48h32.85c3.02,0,5.48-2.45,5.48-5.48v-32.85c0-3.02-2.45-5.48-5.48-5.48Zm-19.27,33.18c0,1.45-1.18,2.63-2.63,2.63h-8.1c-1.45,0-2.63-1.18-2.63-2.63v-24.86c0-1.45,1.18-2.63,2.63-2.63h8.1c1.45,0,2.63,1.18,2.63,2.63v24.86Zm19.05-10.95c0,1.45-1.18,2.63-2.63,2.63h-8.1c-1.45,0-2.63-1.18-2.63-2.63v-13.91c0-1.45,1.18-2.63,2.63-2.63h8.1c1.45,0,2.63,1.18,2.63,2.63v13.91Z"></path><g><circle class="cls-15" cx="79.81" cy="377.6" r="42.49"></circle><path class="cls-4" d="M79.81,420.85c-23.85,0-43.25-19.4-43.25-43.25s19.4-43.25,43.25-43.25,43.25,19.4,43.25,43.25-19.4,43.25-43.25,43.25Zm0-84.98c-23.01,0-41.74,18.72-41.74,41.74s18.72,41.74,41.74,41.74,41.74-18.72,41.74-41.74-18.72-41.74-41.74-41.74Z"></path></g><g id="logo"><path id="Fill-14" class="cls-12" d="M79.81,404.2l10.35-31.85h-20.7l10.35,31.85Z"></path><path id="Fill-16" class="cls-7" d="M79.81,404.2l-10.35-31.85h-14.5l24.85,31.85h0Z"></path><path id="Fill-18" class="cls-6" d="M54.96,372.35l-3.15,9.68c-.29,.88,.03,1.86,.78,2.39l27.22,19.78-24.85-31.85Z"></path><path id="Fill-20" class="cls-12" d="M54.96,372.35h14.5l-6.24-19.19c-.32-.99-1.72-.99-2.04,0l-6.22,19.19Z"></path><path id="Fill-21" class="cls-7" d="M79.81,404.2l10.35-31.85h14.5l-24.85,31.85Z"></path><path id="Fill-22" class="cls-6" d="M104.66,372.35l3.15,9.68c.29,.88-.03,1.86-.78,2.39l-27.22,19.78,24.85-31.85h0Z"></path><path id="Fill-23" class="cls-12" d="M104.66,372.35h-14.5l6.24-19.19c.32-.99,1.72-.99,2.04,0l6.22,19.19Z"></path></g><g><rect class="cls-4" x="541.61" y="261.48" width="2.08" height="3.11"></rect><path class="cls-4" d="M727.75,264.59h-4.18v-3.11h4.18v3.11Zm-8.37,0h-4.18v-3.11h4.18v3.11Zm-8.37,0h-4.18v-3.11h4.18v3.11Zm-8.37,0h-4.18v-3.11h4.18v3.11Zm-8.37,0h-4.18v-3.11h4.18v3.11Zm-8.37,0h-4.18v-3.11h4.18v3.11Zm-8.37,0h-4.18v-3.11h4.18v3.11Zm-8.37,0h-4.18v-3.11h4.18v3.11Zm-8.37,0h-4.18v-3.11h4.18v3.11Zm-8.37,0h-4.18v-3.11h4.18v3.11Zm-8.37,0h-4.18v-3.11h4.18v3.11Zm-8.37,0h-4.18v-3.11h4.18v3.11Zm-8.37,0h-4.18v-3.11h4.18v3.11Zm-8.37,0h-4.18v-3.11h4.18v3.11Zm-8.37,0h-4.18v-3.11h4.18v3.11Zm-8.37,0h-4.18v-3.11h4.18v3.11Zm-8.37,0h-4.18v-3.11h4.18v3.11Zm-8.37,0h-4.18v-3.11h4.18v3.11Zm-8.37,0h-4.18v-3.11h4.18v3.11Zm-8.37,0h-4.18v-3.11h4.18v3.11Zm-8.37,0h-4.18v-3.11h4.18v3.11Zm-8.37,0h-4.18v-3.11h4.18v3.11Zm180.96-.53l-2.2-2.2,2.96-2.96,2.2,2.2-2.96,2.96Zm5.92-5.92l-2.2-2.2,2.96-2.96,2.2,2.2-2.96,2.96Zm5.92-5.92l-2.2-2.2,2.96-2.96,2.2,2.2-2.96,2.96Zm5.92-5.92l-2.2-2.2,2.96-2.96,2.2,2.2-2.96,2.96Zm5.92-5.92l-2.2-2.2,2.96-2.96,2.2,2.2-2.96,2.96Zm5.92-5.92l-2.2-2.2,2.96-2.96,2.2,2.2-2.96,2.96Zm5.92-5.92l-2.2-2.2,2.96-2.96,2.2,2.2-2.96,2.96Z"></path><rect class="cls-4" x="773.02" y="219.26" width="2.08" height="3.11" transform="translate(70.66 612.17) rotate(-45.01)"></rect></g><path class="cls-4" d="M673.65,235.7h-4.15v-3.11h4.15v3.11Zm-8.31,0h-4.15v-3.11h4.15v3.11Zm-8.31,0h-4.15v-3.11h4.15v3.11Zm-8.31,0h-4.15v-3.11h4.15v3.11Zm-8.31,0h-4.15v-3.11h4.15v3.11Zm-8.31,0h-4.15v-3.11h4.15v3.11Zm-8.31,0h-4.15v-3.11h4.15v3.11Zm-8.31,0h-4.15v-3.11h4.15v3.11Zm-8.31,0h-4.15v-3.11h4.15v3.11Zm-8.31,0h-4.15v-3.11h4.15v3.11Zm-8.31,0h-4.15v-3.11h4.15v3.11Zm-8.31,0h-4.15v-3.11h4.15v3.11Zm-8.31,0h-4.15v-3.11h4.15v3.11Zm-8.31,0h-4.15v-3.11h4.15v3.11Zm-8.31,0h-4.15v-3.11h4.15v3.11Zm-8.31,0h-4.15v-3.11h4.15v3.11Zm-8.31,0h-4.15v-3.11h4.15v3.11Zm-8.31,0h-4.15v-3.11h4.15v3.11Zm-8.31,0h-4.15v-3.11h4.15v3.11Zm-8.31,0h-4.15v-3.11h4.15v3.11Zm161.38-3.7h-3.12v-4.15h3.12v4.15Zm0-8.31h-3.12v-4.15h3.12v4.15Zm0-8.31h-3.12v-4.15h3.12v4.15Zm0-8.31h-3.12v-4.15h3.12v4.15Zm0-8.31h-3.12v-4.15h3.12v4.15Zm0-8.31h-3.12v-4.15h3.12v4.15Zm0-8.31h-3.12v-4.15h3.12v4.15Z"></path><g><rect class="cls-4" x="541.61" y="299.03" width="2.08" height="3.11"></rect><path class="cls-4" d="M769.26,340.22l-2.96-2.96,2.2-2.2,2.96,2.96-2.2,2.2Zm-5.92-5.92l-2.96-2.96,2.2-2.2,2.96,2.96-2.2,2.2Zm-5.92-5.92l-2.96-2.96,2.2-2.2,2.96,2.96-2.2,2.2Zm-5.92-5.92l-2.96-2.96,2.2-2.2,2.96,2.96-2.2,2.2Zm-5.92-5.92l-2.96-2.96,2.2-2.2,2.96,2.96-2.2,2.2Zm-5.92-5.92l-2.96-2.96,2.2-2.2,2.96,2.96-2.2,2.2Zm-5.92-5.92l-2.96-2.96,2.2-2.2,2.96,2.96-2.2,2.2Zm-6.01-2.57h-4.18v-3.11h4.18v3.11Zm-8.37,0h-4.18v-3.11h4.18v3.11Zm-8.37,0h-4.18v-3.11h4.18v3.11Zm-8.37,0h-4.18v-3.11h4.18v3.11Zm-8.37,0h-4.18v-3.11h4.18v3.11Zm-8.37,0h-4.18v-3.11h4.18v3.11Zm-8.37,0h-4.18v-3.11h4.18v3.11Zm-8.37,0h-4.18v-3.11h4.18v3.11Zm-8.37,0h-4.18v-3.11h4.18v3.11Zm-8.37,0h-4.18v-3.11h4.18v3.11Zm-8.37,0h-4.18v-3.11h4.18v3.11Zm-8.37,0h-4.18v-3.11h4.18v3.11Zm-8.37,0h-4.18v-3.11h4.18v3.11Zm-8.37,0h-4.18v-3.11h4.18v3.11Zm-8.37,0h-4.18v-3.11h4.18v3.11Zm-8.37,0h-4.18v-3.11h4.18v3.11Zm-8.37,0h-4.18v-3.11h4.18v3.11Zm-8.37,0h-4.18v-3.11h4.18v3.11Zm-8.37,0h-4.18v-3.11h4.18v3.11Zm-8.37,0h-4.18v-3.11h4.18v3.11Zm-8.37,0h-4.18v-3.11h4.18v3.11Zm-8.37,0h-4.18v-3.11h4.18v3.11Z"></path><rect class="cls-4" x="772.5" y="341.77" width="3.11" height="2.08" transform="translate(-15.74 647.62) rotate(-44.99)"></rect></g><path class="cls-4" d="M677.21,385.62h-3.12v-4.15h3.12v4.15Zm0-8.31h-3.12v-4.15h3.12v4.15Zm0-8.31h-3.12v-4.15h3.12v4.15Zm0-8.31h-3.12v-4.15h3.12v4.15Zm0-8.31h-3.12v-4.15h3.12v4.15Zm0-8.31h-3.12v-4.15h3.12v4.15Zm0-8.31h-3.12v-4.15h3.12v4.15Zm-3.56-4.74h-4.15v-3.11h4.15v3.11Zm-8.31,0h-4.15v-3.11h4.15v3.11Zm-8.31,0h-4.15v-3.11h4.15v3.11Zm-8.31,0h-4.15v-3.11h4.15v3.11Zm-8.31,0h-4.15v-3.11h4.15v3.11Zm-8.31,0h-4.15v-3.11h4.15v3.11Zm-8.31,0h-4.15v-3.11h4.15v3.11Zm-8.31,0h-4.15v-3.11h4.15v3.11Zm-8.31,0h-4.15v-3.11h4.15v3.11Zm-8.31,0h-4.15v-3.11h4.15v3.11Zm-8.31,0h-4.15v-3.11h4.15v3.11Zm-8.31,0h-4.15v-3.11h4.15v3.11Zm-8.31,0h-4.15v-3.11h4.15v3.11Zm-8.31,0h-4.15v-3.11h4.15v3.11Zm-8.31,0h-4.15v-3.11h4.15v3.11Zm-8.31,0h-4.15v-3.11h4.15v3.11Zm-8.31,0h-4.15v-3.11h4.15v3.11Zm-8.31,0h-4.15v-3.11h4.15v3.11Zm-8.31,0h-4.15v-3.11h4.15v3.11Zm-8.31,0h-4.15v-3.11h4.15v3.11Z"></path><g><circle class="cls-15" cx="807.37" cy="378.03" r="42.49"></circle><path class="cls-4" d="M807.37,421.27c-23.85,0-43.25-19.4-43.25-43.25s19.4-43.25,43.25-43.25,43.25,19.4,43.25,43.25-19.4,43.25-43.25,43.25Zm0-84.98c-23.01,0-41.74,18.72-41.74,41.74s18.72,41.74,41.74,41.74,41.74-18.72,41.74-41.74-18.72-41.74-41.74-41.74Z"></path></g><g id="logo-2"><path id="Fill-14-2" class="cls-12" d="M807.37,404.62l10.35-31.85h-20.7l10.35,31.85Z"></path><path id="Fill-16-2" class="cls-7" d="M807.37,404.62l-10.35-31.85h-14.5l24.85,31.85h0Z"></path><path id="Fill-18-2" class="cls-6" d="M782.52,372.77l-3.15,9.68c-.29,.88,.03,1.86,.78,2.39l27.22,19.78-24.85-31.85Z"></path><path id="Fill-20-2" class="cls-12" d="M782.52,372.77h14.5l-6.24-19.19c-.32-.99-1.72-.99-2.04,0l-6.22,19.19Z"></path><path id="Fill-21-2" class="cls-7" d="M807.37,404.62l10.35-31.85h14.5l-24.85,31.85Z"></path><path id="Fill-22-2" class="cls-6" d="M832.22,372.77l3.15,9.68c.29,.88-.03,1.86-.78,2.39l-27.22,19.78,24.85-31.85h0Z"></path><path id="Fill-23-2" class="cls-12" d="M832.22,372.77h-14.5l6.24-19.19c.32-.99,1.72-.99,2.04,0l6.22,19.19Z"></path></g><g><circle class="cls-15" cx="676.01" cy="131.93" r="42.49"></circle><path class="cls-4" d="M676.01,175.18c-23.85,0-43.25-19.4-43.25-43.25s19.4-43.25,43.25-43.25,43.25,19.4,43.25,43.25-19.4,43.25-43.25,43.25Zm0-84.98c-23.01,0-41.74,18.72-41.74,41.74s18.72,41.74,41.74,41.74,41.74-18.72,41.74-41.74-18.72-41.74-41.74-41.74Z"></path></g><g><path class="cls-11" d="M632.81,65.75h4.03c1.87,0,3.22,.27,4.05,.82,.83,.54,1.25,1.4,1.25,2.58,0,.79-.2,1.45-.61,1.97-.41,.53-.99,.86-1.76,.99v.09c.95,.18,1.65,.53,2.1,1.06,.45,.53,.67,1.25,.67,2.15,0,1.22-.42,2.17-1.28,2.86-.85,.69-2.03,1.04-3.55,1.04h-4.9v-13.57Zm2.22,5.6h2.13c.93,0,1.61-.15,2.03-.44s.64-.79,.64-1.5c0-.64-.23-1.1-.69-1.38-.46-.28-1.19-.43-2.2-.43h-1.92v3.75Zm0,1.8v4.3h2.36c.93,0,1.63-.18,2.1-.54,.47-.35,.71-.92,.71-1.68,0-.71-.24-1.23-.72-1.57-.48-.34-1.22-.51-2.2-.51h-2.25Z"></path><path class="cls-11" d="M644.99,66.33c0-.39,.11-.69,.32-.9s.52-.32,.91-.32,.68,.11,.9,.32,.32,.51,.32,.9-.11,.66-.32,.88-.51,.32-.9,.32-.7-.11-.91-.32-.32-.5-.32-.88Zm2.31,12.98h-2.18v-10.26h2.18v10.26Z"></path><path class="cls-11" d="M654.24,77.74c.53,0,1.07-.08,1.6-.25v1.64c-.24,.11-.55,.19-.93,.26-.38,.07-.78,.11-1.18,.11-2.07,0-3.1-1.09-3.1-3.27v-5.53h-1.4v-.96l1.5-.8,.74-2.17h1.35v2.28h2.92v1.65h-2.92v5.49c0,.53,.13,.91,.39,1.16,.26,.25,.61,.38,1.03,.38Z"></path><path class="cls-11" d="M663.14,68.87c1.28,0,2.28,.46,2.99,1.39,.71,.93,1.07,2.23,1.07,3.91s-.36,2.99-1.09,3.93-1.73,1.41-3.01,1.41-2.31-.47-3.02-1.4h-.15l-.4,1.22h-1.63v-14.44h2.18v3.43c0,.25-.01,.63-.04,1.13-.03,.5-.04,.82-.06,.95h.09c.69-1.02,1.71-1.53,3.06-1.53Zm-.57,1.78c-.88,0-1.51,.26-1.9,.77-.39,.52-.59,1.38-.6,2.6v.15c0,1.25,.2,2.16,.59,2.71,.4,.56,1.04,.84,1.94,.84,.77,0,1.36-.31,1.76-.92s.6-1.5,.6-2.65c0-2.33-.8-3.5-2.39-3.5Z"></path><path class="cls-11" d="M676.97,79.32l-.31-1.35h-.11c-.3,.48-.74,.85-1.3,1.12-.56,.27-1.2,.41-1.92,.41-1.24,0-2.17-.31-2.78-.93-.61-.62-.92-1.56-.92-2.81v-6.71h2.2v6.33c0,.79,.16,1.37,.48,1.77,.32,.39,.83,.59,1.51,.59,.92,0,1.59-.27,2.02-.82,.43-.55,.64-1.46,.64-2.75v-5.11h2.19v10.26h-1.72Z"></path><path class="cls-11" d="M685.94,79.5c-1.55,0-2.73-.45-3.54-1.36-.81-.91-1.21-2.21-1.21-3.9s.42-3.05,1.27-3.98c.84-.93,2.07-1.39,3.66-1.39,1.08,0,2.06,.2,2.92,.6l-.66,1.75c-.92-.36-1.68-.54-2.28-.54-1.78,0-2.66,1.18-2.66,3.53,0,1.15,.22,2.01,.66,2.6,.44,.58,1.09,.87,1.94,.87,.97,0,1.89-.24,2.76-.72v1.9c-.39,.23-.81,.39-1.25,.49-.44,.1-.98,.15-1.61,.15Z"></path><path class="cls-11" d="M693.32,73.9l1.23-1.54,3.1-3.3h2.51l-4.13,4.41,4.39,5.86h-2.56l-3.29-4.5-1.2,.98v3.52h-2.16v-14.44h2.16v7.04l-.11,1.98h.06Z"></path><path class="cls-11" d="M706.56,79.5c-1.6,0-2.84-.46-3.75-1.4-.9-.93-1.35-2.21-1.35-3.85s.42-2.99,1.25-3.95c.84-.96,1.98-1.44,3.44-1.44,1.35,0,2.42,.41,3.21,1.23,.79,.82,1.18,1.95,1.18,3.4v1.18h-6.84c.03,1,.3,1.76,.81,2.3s1.22,.8,2.14,.8c.61,0,1.17-.06,1.69-.17,.53-.11,1.09-.3,1.69-.57v1.77c-.53,.25-1.07,.43-1.62,.54s-1.17,.16-1.86,.16Zm-.4-8.98c-.69,0-1.25,.22-1.67,.66-.42,.44-.67,1.08-.75,1.92h4.66c-.01-.85-.22-1.49-.61-1.92-.4-.44-.94-.66-1.63-.66Z"></path><path class="cls-11" d="M716.85,77.74c.53,0,1.07-.08,1.6-.25v1.64c-.24,.11-.55,.19-.93,.26-.38,.07-.78,.11-1.18,.11-2.07,0-3.1-1.09-3.1-3.27v-5.53h-1.4v-.96l1.5-.8,.74-2.17h1.35v2.28h2.92v1.65h-2.92v5.49c0,.53,.13,.91,.39,1.16,.26,.25,.61,.38,1.03,.38Z"></path></g><g><polygon class="cls-1" points="671.22 140.99 681.05 140.99 683.42 127.15 668.61 127.15 671.22 140.99"></polygon><path class="cls-18" d="M654.04,112.95c-.83-.01-1.51,.65-1.52,1.49,0,.09,0,.17,.02,.26l6.39,38.8c.16,.98,1.01,1.7,2,1.71h30.66c.75,0,1.39-.53,1.51-1.26l6.39-39.23c.13-.82-.42-1.59-1.25-1.73-.09-.01-.17-.02-.26-.02h-43.94Zm26.91,28.03h-9.79l-2.65-13.84h14.81l-2.37,13.84Z"></path><path class="cls-21" d="M697.46,127.14h-14.13l-2.37,13.84h-9.79l-11.55,13.72c.37,.32,.83,.49,1.32,.5h30.67c.75,0,1.39-.53,1.51-1.26l4.35-26.79Z"></path></g><g><circle class="cls-15" cx="676.06" cy="431.19" r="42.49"></circle><path class="cls-4" d="M676.06,474.43c-23.85,0-43.25-19.4-43.25-43.25s19.4-43.25,43.25-43.25,43.25,19.4,43.25,43.25-19.4,43.25-43.25,43.25Zm0-84.98c-23.01,0-41.74,18.72-41.74,41.74s18.72,41.74,41.74,41.74,41.74-18.72,41.74-41.74-18.72-41.74-41.74-41.74Z"></path></g><g><path class="cls-11" d="M622.2,495.68l-1.35-3.77h-5.19l-1.33,3.77h-2.34l5.08-13.62h2.41l5.07,13.62h-2.36Zm-1.94-5.68l-1.27-3.69c-.09-.25-.22-.64-.38-1.17s-.28-.92-.34-1.17c-.17,.76-.41,1.6-.73,2.5l-1.22,3.53h3.95Z"></path><path class="cls-11" d="M632.98,495.68h-7.79v-1.35l5.19-7.25h-4.87v-1.67h7.32v1.52l-5.07,7.07h5.22v1.67Z"></path><path class="cls-11" d="M642.44,495.68l-.31-1.35h-.11c-.3,.48-.74,.85-1.3,1.12-.56,.27-1.2,.41-1.92,.41-1.24,0-2.17-.31-2.78-.93-.61-.62-.92-1.56-.92-2.81v-6.71h2.2v6.33c0,.79,.16,1.37,.48,1.77,.32,.39,.83,.59,1.51,.59,.92,0,1.59-.27,2.02-.82,.43-.55,.64-1.46,.64-2.75v-5.11h2.19v10.26h-1.72Z"></path><path class="cls-11" d="M652.48,485.23c.44,0,.8,.03,1.09,.09l-.21,2.03c-.31-.08-.63-.11-.96-.11-.87,0-1.58,.29-2.12,.85-.54,.57-.81,1.31-.81,2.22v5.36h-2.18v-10.26h1.71l.29,1.81h.11c.34-.61,.78-1.1,1.33-1.46s1.14-.54,1.77-.54Z"></path><path class="cls-11" d="M659.95,495.87c-1.6,0-2.84-.46-3.75-1.4-.9-.93-1.35-2.21-1.35-3.85s.42-2.99,1.25-3.95c.84-.96,1.98-1.44,3.44-1.44,1.35,0,2.42,.41,3.21,1.23,.79,.82,1.18,1.95,1.18,3.4v1.18h-6.84c.03,1,.3,1.76,.81,2.3s1.22,.8,2.14,.8c.61,0,1.17-.06,1.69-.17,.53-.11,1.09-.3,1.69-.57v1.77c-.53,.25-1.07,.43-1.62,.54-.55,.11-1.17,.16-1.86,.16Zm-.4-8.98c-.69,0-1.25,.22-1.67,.66-.42,.44-.67,1.08-.75,1.92h4.66c-.01-.85-.22-1.49-.61-1.92-.4-.44-.94-.66-1.63-.66Z"></path><path class="cls-11" d="M682.62,488.77c0,2.24-.62,3.95-1.87,5.14-1.24,1.18-3.03,1.78-5.37,1.78h-3.8v-13.57h4.2c2.16,0,3.84,.58,5.04,1.74,1.2,1.16,1.8,2.8,1.8,4.91Zm-2.34,.08c0-3.25-1.52-4.87-4.56-4.87h-1.92v9.85h1.58c3.27,0,4.9-1.66,4.9-4.97Z"></path><path class="cls-11" d="M689.78,495.87c-1.6,0-2.84-.46-3.75-1.4-.9-.93-1.35-2.21-1.35-3.85s.42-2.99,1.25-3.95c.84-.96,1.98-1.44,3.44-1.44,1.35,0,2.42,.41,3.21,1.23,.79,.82,1.18,1.95,1.18,3.4v1.18h-6.84c.03,1,.3,1.76,.81,2.3s1.22,.8,2.14,.8c.61,0,1.17-.06,1.69-.17,.53-.11,1.09-.3,1.69-.57v1.77c-.53,.25-1.07,.43-1.62,.54-.55,.11-1.17,.16-1.86,.16Zm-.4-8.98c-.69,0-1.25,.22-1.67,.66-.42,.44-.67,1.08-.75,1.92h4.66c-.01-.85-.22-1.49-.61-1.92-.4-.44-.94-.66-1.63-.66Z"></path><path class="cls-11" d="M698.59,495.68l-3.9-10.26h2.3l2.09,5.97c.36,1,.58,1.81,.65,2.43h.07c.06-.45,.27-1.26,.65-2.43l2.09-5.97h2.32l-3.91,10.26h-2.36Z"></path><path class="cls-11" d="M718.7,488.88c0,2.21-.55,3.93-1.66,5.15-1.1,1.23-2.67,1.84-4.69,1.84s-3.62-.61-4.72-1.82c-1.1-1.22-1.65-2.94-1.65-5.18s.55-3.96,1.66-5.16c1.11-1.2,2.68-1.8,4.73-1.8s3.58,.61,4.68,1.83c1.1,1.22,1.65,2.94,1.65,5.15Zm-10.36,0c0,1.67,.34,2.94,1.01,3.8,.67,.86,1.67,1.29,3,1.29s2.31-.43,2.98-1.28c.67-.85,1.01-2.13,1.01-3.82s-.33-2.92-1-3.79c-.67-.86-1.66-1.29-2.97-1.29s-2.33,.43-3.01,1.29c-.68,.86-1.02,2.12-1.02,3.79Z"></path><path class="cls-11" d="M726.58,495.87c-1.3,0-2.31-.47-3.02-1.4h-.13c.09,.87,.13,1.39,.13,1.58v4.2h-2.18v-14.83h1.76c.05,.19,.15,.65,.31,1.37h.11c.68-1.04,1.7-1.56,3.06-1.56,1.28,0,2.28,.46,2.99,1.39,.71,.93,1.07,2.23,1.07,3.91s-.36,2.98-1.09,3.92c-.73,.94-1.73,1.41-3.01,1.41Zm-.53-8.85c-.87,0-1.5,.25-1.9,.76s-.6,1.32-.6,2.43v.32c0,1.25,.2,2.16,.59,2.71,.4,.56,1.04,.84,1.94,.84,.75,0,1.34-.31,1.74-.93,.41-.62,.61-1.5,.61-2.64s-.2-2.02-.61-2.61c-.4-.59-1-.89-1.79-.89Z"></path><path class="cls-11" d="M740.11,492.76c0,1-.36,1.77-1.1,2.31-.73,.54-1.78,.8-3.14,.8s-2.47-.21-3.3-.62v-1.88c1.21,.56,2.33,.83,3.37,.83,1.34,0,2.01-.4,2.01-1.22,0-.26-.08-.48-.22-.65-.15-.17-.39-.35-.73-.54-.34-.19-.81-.39-1.42-.63-1.18-.46-1.98-.91-2.4-1.37-.42-.46-.63-1.05-.63-1.78,0-.88,.35-1.56,1.06-2.04,.71-.49,1.67-.73,2.89-.73s2.35,.24,3.42,.73l-.71,1.64c-1.11-.46-2.04-.69-2.79-.69-1.15,0-1.73,.33-1.73,.98,0,.32,.15,.59,.45,.82,.3,.22,.95,.53,1.96,.92,.85,.33,1.46,.63,1.85,.9,.38,.27,.67,.59,.85,.94,.19,.35,.28,.78,.28,1.27Z"></path></g><g id="icons_dark"><polygon class="cls-3" points="699.83 416.37 699.83 445.76 687.59 455.43 669.06 448.13 669.06 455.13 658.76 441.64 689.03 443.95 689.03 417.93 699.83 416.37"></polygon><polygon class="cls-3" points="672.24 414.81 672.24 406.95 689.03 417.93 658.76 424.11 658.76 441.64 652.03 438.52 652.03 424.67 656.77 419.11 672.24 414.81"></polygon></g><g><circle class="cls-15" cx="810.3" cy="183.54" r="42.49"></circle><path class="cls-4" d="M810.3,226.79c-23.85,0-43.25-19.4-43.25-43.25s19.4-43.25,43.25-43.25,43.25,19.4,43.25,43.25-19.4,43.25-43.25,43.25Zm0-84.98c-23.01,0-41.74,18.72-41.74,41.74s18.72,41.74,41.74,41.74,41.74-18.72,41.74-41.74-18.72-41.74-41.74-41.74Z"></path></g><path class="cls-9" d="M810.4,151.49c-17.99,0-32.57,14.57-32.57,32.56,0,14.02,8.97,26.47,22.27,30.9,1.63,.3,2.23-.71,2.23-1.57v-6.07c-9.06,1.98-10.98-3.84-10.98-3.84-1.48-3.76-3.61-4.76-3.61-4.76-2.96-2.02,.22-1.98,.22-1.98,2.1,.28,3.95,1.53,4.99,3.37,2.9,4.97,7.61,3.53,9.5,2.71,.15-1.65,.89-3.2,2.08-4.36-7.23-.81-14.84-3.61-14.84-16.09-.04-3.24,1.16-6.37,3.37-8.74-1-2.81-.89-5.89,.31-8.62,0,0,2.71-.87,8.96,3.34,5.33-1.46,10.95-1.46,16.28,0,6.21-4.21,8.94-3.34,8.94-3.34,1.2,2.73,1.31,5.81,.33,8.62,2.19,2.38,3.39,5.51,3.34,8.74,0,12.51-7.61,15.26-14.86,16.07,1.56,1.6,2.36,3.8,2.2,6.04v8.93c0,.87,.58,1.89,2.24,1.56,17.06-5.71,26.26-24.16,20.55-41.21-4.44-13.27-16.87-22.22-30.86-22.23h-.07Z"></path><path class="cls-17" d="M788.84,199.23c-.14,.19-.4,.23-.6,.11-.26-.12-.4-.35-.32-.53s.35-.22,.6-.11,.4,.35,.32,.53Z"></path><path class="cls-17" d="M790.28,200.8c-.16,.15-.49,.08-.71-.16s-.27-.56-.09-.71,.48-.08,.71,.15,.27,.57,.09,.72Z"></path><path class="cls-17" d="M791.61,202.81c-.21,.14-.56,0-.77-.3s-.21-.68,0-.83,.56,0,.78,.29,.21,.69,0,.84h-.01Z"></path><path class="cls-17" d="M793.49,204.73c-.19,.21-.6,.15-.89-.13s-.4-.68-.2-.89,.6-.15,.9,.13,.39,.68,.19,.89Z"></path><path class="cls-17" d="M796.11,205.85c-.18,.3-.55,.42-.88,.28-.39-.12-.64-.43-.57-.71s.48-.4,.88-.28,.65,.43,.57,.71Z"></path><path class="cls-17" d="M798.92,206.06c0,.28-.33,.53-.74,.53s-.75-.22-.76-.5,.33-.53,.75-.53,.75,.22,.75,.5Z"></path><path class="cls-17" d="M801.56,205.61c0,.28-.25,.57-.65,.64-.33,.11-.69-.05-.83-.37,0-.28,.25-.57,.64-.64s.78,.09,.84,.37Z"></path><path class="cls-8" d="M810.3,220.28c-20.42,0-37.04-16.61-37.04-37.04s16.61-37.04,37.04-37.04,37.04,16.61,37.04,37.04-16.62,37.04-37.04,37.04Zm0-72.4c-19.5,0-35.36,15.86-35.36,35.36s15.86,35.36,35.36,35.36,35.36-15.86,35.36-35.36-15.86-35.36-35.36-35.36Z"></path><g><rect class="cls-4" x="343.49" y="261.48" width="2.08" height="3.11"></rect><path class="cls-4" d="M339.36,264.59h-4.14v-3.11h4.14v3.11Zm-8.27,0h-4.14v-3.11h4.14v3.11Zm-8.27,0h-4.14v-3.11h4.14v3.11Zm-8.27,0h-4.14v-3.11h4.14v3.11Zm-8.27,0h-4.13v-3.11h4.13v3.11Zm-8.27,0h-4.13v-3.11h4.13v3.11Zm-8.27,0h-4.13v-3.11h4.13v3.11Zm-8.27,0h-4.14v-3.11h4.14v3.11Zm-8.27,0h-4.14v-3.11h4.14v3.11Zm-8.27,0h-4.14v-3.11h4.14v3.11Zm-8.27,0h-4.14v-3.11h4.14v3.11Zm-8.27,0h-4.14v-3.11h4.14v3.11Zm-8.27,0h-4.13v-3.11h4.13v3.11Zm-8.27,0h-4.13v-3.11h4.13v3.11Zm-8.27,0h-4.13v-3.11h4.13v3.11Zm-8.27,0h-4.14v-3.11h4.14v3.11Zm-8.27,0h-4.14v-3.11h4.14v3.11Zm-8.27,0h-4.14v-3.11h4.14v3.11Zm-8.27,0h-4.14v-3.11h4.14v3.11Zm-8.27,0h-4.13v-3.11h4.13v3.11Zm-8.27,0h-4.13v-3.11h4.13v3.11Zm-8.27,0h-4.13v-3.11h4.13v3.11Z"></path><polygon class="cls-4" points="157.42 264.59 154.7 264.59 152.77 262.67 154.97 260.47 155.99 261.48 157.42 261.48 157.42 264.59"></polygon><path class="cls-4" d="M149.69,259.59l-3.08-3.08,2.2-2.2,3.08,3.08-2.2,2.2Zm-6.16-6.16l-3.08-3.08,2.2-2.2,3.08,3.08-2.2,2.2Zm-6.16-6.16l-3.08-3.08,2.2-2.2,3.08,3.08-2.2,2.2Zm-6.16-6.16l-3.08-3.08,2.2-2.2,3.08,3.08-2.2,2.2Zm-6.16-6.16l-3.08-3.08,2.2-2.2,3.08,3.08-2.2,2.2Zm-6.16-6.16l-3.08-3.08,2.2-2.2,3.08,3.08-2.2,2.2Z"></path><rect class="cls-4" x="111.56" y="219.78" width="3.11" height="2.08" transform="translate(-123.01 144.66) rotate(-45)"></rect></g><path class="cls-4" d="M375.49,235.7h-4.15v-3.11h4.15v3.11Zm-8.31,0h-4.15v-3.11h4.15v3.11Zm-8.31,0h-4.15v-3.11h4.15v3.11Zm-8.31,0h-4.15v-3.11h4.15v3.11Zm-8.31,0h-4.15v-3.11h4.15v3.11Zm-8.31,0h-4.15v-3.11h4.15v3.11Zm-8.31,0h-4.15v-3.11h4.15v3.11Zm-8.31,0h-4.15v-3.11h4.15v3.11Zm-8.31,0h-4.15v-3.11h4.15v3.11Zm-8.31,0h-4.15v-3.11h4.15v3.11Zm-8.31,0h-4.15v-3.11h4.15v3.11Zm-8.31,0h-4.15v-3.11h4.15v3.11Zm-8.31,0h-4.15v-3.11h4.15v3.11Zm-8.31,0h-4.15v-3.11h4.15v3.11Zm-8.31,0h-4.15v-3.11h4.15v3.11Zm-8.31,0h-4.15v-3.11h4.15v3.11Zm-8.31,0h-4.15v-3.11h4.15v3.11Zm-8.31,0h-4.15v-3.11h4.15v3.11Zm-8.31,0h-4.15v-3.11h4.15v3.11Zm-8.31,0h-4.15v-3.11h4.15v3.11Zm-4.6-3.7h-3.11v-4.15h3.11v4.15Zm0-8.31h-3.11v-4.15h3.11v4.15Zm0-8.31h-3.11v-4.15h3.11v4.15Zm0-8.31h-3.11v-4.15h3.11v4.15Zm0-8.31h-3.11v-4.15h3.11v4.15Zm0-8.31h-3.11v-4.15h3.11v4.15Zm0-8.31h-3.11v-4.15h3.11v4.15Z"></path><g><rect class="cls-4" x="343.49" y="299.03" width="2.08" height="3.11"></rect><path class="cls-4" d="M117.91,340.22l-2.2-2.2,2.96-2.96,2.2,2.2-2.96,2.96Zm5.92-5.92l-2.2-2.2,2.96-2.96,2.2,2.2-2.96,2.96Zm5.92-5.92l-2.2-2.2,2.96-2.96,2.2,2.2-2.96,2.96Zm5.92-5.92l-2.2-2.2,2.96-2.96,2.2,2.2-2.96,2.96Zm5.92-5.92l-2.2-2.2,2.96-2.96,2.2,2.2-2.96,2.96Zm5.92-5.92l-2.2-2.2,2.96-2.96,2.2,2.2-2.96,2.96Zm5.92-5.92l-2.2-2.2,2.96-2.96,2.2,2.2-2.96,2.96Zm185.9-2.57h-4.18v-3.11h4.18v3.11Zm-8.37,0h-4.18v-3.11h4.18v3.11Zm-8.37,0h-4.18v-3.11h4.18v3.11Zm-8.37,0h-4.18v-3.11h4.18v3.11Zm-8.37,0h-4.18v-3.11h4.18v3.11Zm-8.37,0h-4.18v-3.11h4.18v3.11Zm-8.37,0h-4.18v-3.11h4.18v3.11Zm-8.37,0h-4.18v-3.11h4.18v3.11Zm-8.37,0h-4.18v-3.11h4.18v3.11Zm-8.37,0h-4.18v-3.11h4.18v3.11Zm-8.37,0h-4.18v-3.11h4.18v3.11Zm-8.37,0h-4.18v-3.11h4.18v3.11Zm-8.37,0h-4.18v-3.11h4.18v3.11Zm-8.37,0h-4.18v-3.11h4.18v3.11Zm-8.37,0h-4.18v-3.11h4.18v3.11Zm-8.37,0h-4.18v-3.11h4.18v3.11Zm-8.37,0h-4.18v-3.11h4.18v3.11Zm-8.37,0h-4.18v-3.11h4.18v3.11Zm-8.37,0h-4.18v-3.11h4.18v3.11Zm-8.37,0h-4.18v-3.11h4.18v3.11Zm-8.37,0h-4.18v-3.11h4.18v3.11Zm-8.37,0h-4.18v-3.11h4.18v3.11Z"></path><rect class="cls-4" x="112.08" y="341.25" width="2.08" height="3.11" transform="translate(-209.27 180.39) rotate(-45)"></rect></g><path class="cls-4" d="M213.08,385.62h-3.11v-4.15h3.11v4.15Zm0-8.31h-3.11v-4.15h3.11v4.15Zm0-8.31h-3.11v-4.15h3.11v4.15Zm0-8.31h-3.11v-4.15h3.11v4.15Zm0-8.31h-3.11v-4.15h3.11v4.15Zm0-8.31h-3.11v-4.15h3.11v4.15Zm0-8.31h-3.11v-4.15h3.11v4.15Zm162.41-4.74h-4.15v-3.11h4.15v3.11Zm-8.31,0h-4.15v-3.11h4.15v3.11Zm-8.31,0h-4.15v-3.11h4.15v3.11Zm-8.31,0h-4.15v-3.11h4.15v3.11Zm-8.31,0h-4.15v-3.11h4.15v3.11Zm-8.31,0h-4.15v-3.11h4.15v3.11Zm-8.31,0h-4.15v-3.11h4.15v3.11Zm-8.31,0h-4.15v-3.11h4.15v3.11Zm-8.31,0h-4.15v-3.11h4.15v3.11Zm-8.31,0h-4.15v-3.11h4.15v3.11Zm-8.31,0h-4.15v-3.11h4.15v3.11Zm-8.31,0h-4.15v-3.11h4.15v3.11Zm-8.31,0h-4.15v-3.11h4.15v3.11Zm-8.31,0h-4.15v-3.11h4.15v3.11Zm-8.31,0h-4.15v-3.11h4.15v3.11Zm-8.31,0h-4.15v-3.11h4.15v3.11Zm-8.31,0h-4.15v-3.11h4.15v3.11Zm-8.31,0h-4.15v-3.11h4.15v3.11Zm-8.31,0h-4.15v-3.11h4.15v3.11Zm-8.31,0h-4.15v-3.11h4.15v3.11Z"></path><g><circle class="cls-15" cx="211.52" cy="131.93" r="42.49"></circle><path class="cls-4" d="M211.52,175.18c-23.85,0-43.25-19.4-43.25-43.25s19.4-43.25,43.25-43.25,43.25,19.4,43.25,43.25-19.4,43.25-43.25,43.25Zm0-84.98c-23.01,0-41.74,18.72-41.74,41.74s18.72,41.74,41.74,41.74,41.74-18.72,41.74-41.74-18.72-41.74-41.74-41.74Z"></path></g><g><path class="cls-18" d="M240.32,130.22l-26.25-26.25-2.54-2.54h0l-19.76,19.76h0l-9.04,9.04c-.94,.94-.94,2.47,0,3.41l18.06,18.06,10.74,10.74,19.76-19.76,.31-.31,8.73-8.73c.94-.94,.94-2.47,0-3.41Zm-28.8,10.73l-9.02-9.02,9.02-9.02,9.02,9.02-9.02,9.02Z"></path><path class="cls-19" d="M211.52,122.91c-5.91-5.91-5.93-15.47-.06-21.41l-19.74,19.73,10.74,10.74,9.06-9.06Z"></path><path class="cls-20" d="M220.57,131.91l-9.04,9.04c5.93,5.93,5.94,15.55,0,21.48h0l19.79-19.78-10.74-10.74Z"></path></g><g><path class="cls-11" d="M196.5,82.15c-.61,0-1.12-.08-1.52-.23v-1.87c.52,.13,.97,.2,1.35,.2,1.21,0,1.82-.77,1.82-2.3v-13.15h2.23v13.07c0,1.39-.33,2.45-.99,3.18-.66,.73-1.62,1.1-2.89,1.1Z"></path><path class="cls-11" d="M203.53,65.38c0-.39,.11-.69,.32-.9s.52-.32,.91-.32,.68,.11,.9,.32,.32,.51,.32,.9-.11,.66-.32,.88c-.21,.21-.51,.32-.9,.32s-.7-.11-.91-.32-.32-.5-.32-.88Zm2.31,12.98h-2.18v-10.26h2.18v10.26Z"></path><path class="cls-11" d="M214.17,67.91c.44,0,.8,.03,1.09,.09l-.21,2.03c-.31-.08-.63-.11-.96-.11-.87,0-1.58,.29-2.12,.85-.54,.57-.81,1.31-.81,2.22v5.36h-2.18v-10.26h1.71l.29,1.81h.11c.34-.61,.78-1.1,1.33-1.46,.55-.36,1.14-.54,1.77-.54Z"></path><path class="cls-11" d="M223.58,78.36l-.44-1.43h-.07c-.5,.63-.99,1.05-1.49,1.28-.5,.23-1.15,.34-1.93,.34-1.01,0-1.8-.27-2.36-.82-.57-.55-.85-1.31-.85-2.31,0-1.06,.39-1.86,1.18-2.39,.78-.54,1.98-.83,3.59-.88l1.77-.06v-.55c0-.66-.15-1.15-.46-1.47-.31-.33-.78-.49-1.42-.49-.53,0-1.03,.08-1.51,.23-.48,.16-.95,.34-1.39,.55l-.71-1.56c.56-.29,1.17-.51,1.83-.66,.66-.15,1.29-.23,1.87-.23,1.3,0,2.29,.28,2.95,.85,.67,.57,1,1.46,1,2.68v6.91h-1.56Zm-3.25-1.48c.79,0,1.43-.22,1.91-.66,.48-.44,.72-1.06,.72-1.86v-.89l-1.32,.06c-1.03,.04-1.77,.21-2.24,.52-.47,.31-.7,.77-.7,1.4,0,.46,.14,.81,.41,1.06,.27,.25,.68,.38,1.23,.38Z"></path></g><g><g><circle class="cls-13" cx="443.22" cy="282.2" r="150.45"></circle><path class="cls-4" d="M443.22,435.67c-84.62,0-153.47-68.84-153.47-153.47s68.84-153.47,153.47-153.47,153.47,68.84,153.47,153.47-68.84,153.47-153.47,153.47Zm0-300.9c-81.29,0-147.43,66.14-147.43,147.43s66.14,147.43,147.43,147.43,147.43-66.14,147.43-147.43-66.14-147.43-147.43-147.43Z"></path></g><g><circle class="cls-1" cx="443.22" cy="282.2" r="121.93"></circle><path class="cls-14" d="M557.07,240.02c-.98-2.59-3.91-3.86-6.46-2.78-1.84,.78-2.96,2.58-2.96,4.47,0,.56,.1,1.14,.31,1.7,4.61,12.24,7.13,25.51,7.13,39.36,0,56.75-42.31,103.63-97.11,110.8v-52.19c3.33-.65,6.52-1.52,9.72-2.6v43.85c45-10.94,78.4-51.5,78.4-99.86,0-38.73-21.42-72.45-53.07-89.97-2.42-1.34-5.47-.36-6.69,2.12-.34,.69-.5,1.42-.5,2.14,0,1.71,.9,3.36,2.49,4.24,28.65,15.86,48.05,46.4,48.05,81.46,0,39.36-24.44,73.01-58.97,86.61v-38.89c5.99-1.88,10.49-7.48,10.49-14.13,0-5.51-2.85-10.31-7.31-12.86,3.49-33.55,18.78-24.71,18.78-35.37v-6.25c0-16.04-37.06-68.22-54.41-69.48-.53-.04-1.06-.06-1.6-.06s-1.09,.02-1.62,.06c-17.36,1.25-54.45,53.44-54.45,69.48v6.25c0,10.66,15.29,1.82,18.78,35.37-4.46,2.56-7.29,7.35-7.29,12.86,0,6.65,4.49,12.25,10.48,14.13v38.89c-34.53-13.6-58.97-47.25-58.97-86.61,0-35.07,19.4-65.6,48.05-81.46,2.26-1.25,3.13-4.06,1.99-6.38-.85-1.73-2.58-2.73-4.37-2.73-.79,0-1.58,.19-2.32,.6-31.64,17.51-53.07,51.24-53.07,89.97,0,48.36,33.41,88.92,78.4,99.86v-43.85c3.2,1.07,6.39,1.94,9.72,2.6v52.19c-54.8-7.17-97.11-54.04-97.11-110.8,0-13.85,2.52-27.12,7.13-39.36,.91-2.43-.26-5.15-2.65-6.17-.62-.26-1.26-.39-1.9-.39-1.96,0-3.82,1.2-4.56,3.16-5,13.3-7.74,27.71-7.74,42.75,0,65.43,51.71,118.78,116.54,121.37v-61.5c1.73,.11,4.93,.16,4.93,.16,0,0,3.19-.05,4.93-.16v61.5c64.83-2.58,116.54-55.93,116.54-121.37,0-15.05-2.74-29.46-7.74-42.75Zm-91.31,69.29c1.81-1.81,4.29-2.92,7.06-2.92,2.76,0,5.24,1.11,7.06,2.92,1.81,1.81,2.92,4.29,2.92,7.06,0,2.76-1.11,5.25-2.92,7.06-1.82,1.81-4.3,2.92-7.06,2.92-2.76,0-5.24-1.11-7.06-2.92-1.81-1.81-2.92-4.3-2.92-7.06,0-2.76,1.11-5.24,2.92-7.06Zm-44.83,14.12c-1.81,1.81-4.3,2.92-7.06,2.92-2.76,0-5.25-1.11-7.06-2.92-1.81-1.81-2.92-4.3-2.92-7.06,0-2.76,1.11-5.24,2.92-7.06,1.81-1.81,4.3-2.92,7.06-2.92,2.76,0,5.24,1.11,7.06,2.92,1.81,1.81,2.92,4.29,2.92,7.06,0,2.76-1.11,5.25-2.92,7.06Z"></path></g></g><g><circle class="cls-15" cx="76.78" cy="183.63" r="42.49"></circle><path class="cls-4" d="M76.78,226.88c-23.85,0-43.25-19.4-43.25-43.25s19.4-43.25,43.25-43.25,43.25,19.4,43.25,43.25-19.4,43.25-43.25,43.25Zm0-84.98c-23.01,0-41.74,18.72-41.74,41.74s18.72,41.74,41.74,41.74,41.74-18.72,41.74-41.74-18.72-41.74-41.74-41.74Z"></path></g><g><path class="cls-5" d="M76.77,158.92c-13.99,0-25.34,11.34-25.34,25.34,0,11.19,7.26,20.69,17.33,24.04,1.27,.23,1.73-.55,1.73-1.22,0-.6-.02-2.6-.03-4.72-7.05,1.53-8.54-2.99-8.54-2.99-1.15-2.93-2.81-3.71-2.81-3.71-2.3-1.57,.17-1.54,.17-1.54,2.54,.18,3.88,2.61,3.88,2.61,2.26,3.87,5.93,2.75,7.37,2.11,.23-1.64,.88-2.76,1.61-3.39-5.63-.64-11.54-2.81-11.54-12.52,0-2.77,.99-5.03,2.61-6.8-.26-.64-1.13-3.22,.25-6.71,0,0,2.13-.68,6.97,2.6,2.02-.56,4.19-.84,6.34-.85,2.15,0,4.32,.29,6.35,.85,4.84-3.28,6.96-2.6,6.96-2.6,1.38,3.49,.51,6.07,.25,6.71,1.62,1.77,2.61,4.03,2.61,6.8,0,9.73-5.93,11.87-11.57,12.5,.91,.79,1.72,2.33,1.72,4.69,0,3.39-.03,6.12-.03,6.95,0,.67,.46,1.46,1.74,1.22,10.06-3.35,17.31-12.85,17.31-24.04,0-13.99-11.34-25.34-25.34-25.34Z"></path><path class="cls-16" d="M57.27,198.09c-.07,.16-.31,.2-.54,.1-.23-.1-.36-.32-.28-.47,.07-.16,.31-.21,.54-.1,.23,.1,.36,.32,.28,.47h0Zm-.39-.29"></path><path class="cls-16" d="M58.54,199.51c-.15,.14-.44,.07-.64-.15-.21-.22-.24-.51-.09-.65,.15-.14,.44-.07,.64,.15,.21,.22,.25,.51,.09,.65h0Zm-.3-.32"></path><path class="cls-16" d="M59.78,201.32c-.19,.13-.51,0-.7-.27-.19-.28-.19-.61,0-.75,.19-.13,.5-.01,.7,.26,.19,.28,.19,.62,0,.76h0Zm0,0"></path><path class="cls-16" d="M61.48,203.07c-.17,.19-.54,.14-.81-.12-.27-.25-.35-.61-.18-.8,.17-.19,.54-.14,.81,.12,.27,.25,.36,.61,.17,.8h0Zm0,0"></path><path class="cls-16" d="M63.82,204.08c-.08,.25-.43,.36-.78,.25-.36-.11-.59-.4-.52-.64,.07-.25,.43-.36,.79-.25,.35,.11,.59,.39,.51,.64h0Zm0,0"></path><path class="cls-16" d="M66.39,204.27c0,.26-.29,.47-.67,.48-.38,0-.68-.2-.68-.46,0-.26,.3-.47,.67-.48,.37,0,.68,.2,.68,.46h0Zm0,0"></path><path class="cls-16" d="M68.78,203.86c.04,.25-.21,.51-.59,.58-.36,.07-.7-.09-.75-.34-.05-.26,.22-.52,.58-.59,.37-.06,.7,.09,.75,.34h0Zm0,0"></path></g></svg>